<svg width="1734" height="148" viewBox="0 0 1734 148" fill="none" xmlns="http://www.w3.org/2000/svg">
<g opacity="0.5">
<path d="M261.029 145.875C262.622 143.507 264.216 141.139 265.858 138.814C290.101 104.479 306.618 51.4836 267.983 19.8007C231.546 -10.2158 184.677 7.19334 160.53 19.8007C159.434 20.368 158.297 20.8661 157.126 21.2917C146.341 28.0623 137.391 36.9691 130.951 47.3396C130.951 47.3396 131.071 37.8896 142.589 22.8046C139.329 22.2456 136.205 21.1614 133.365 19.6034C109.291 6.996 62.3498 -10.4132 25.8883 19.6034C-12.6256 51.2863 3.98726 104.281 28.1339 138.617C29.8725 140.941 32.9633 145.677 32.9633 145.677" stroke="url(#paint0_linear_93_2)" stroke-width="5"/>
<path d="M44.8257 50.2859L44.3724 48.46L44.8611 50.2944C44.8493 50.2916 44.8375 50.2888 44.8257 50.2859ZM44.8237 50.9252L44.3724 52.7474L44.787 50.935C44.7993 50.9317 44.8115 50.9284 44.8237 50.9252ZM44.904 50.6012L44.8829 50.5162L44.9001 50.4408L44.9227 50.5256L44.904 50.6012ZM48.5549 52.9937C47.8855 51.9822 46.9584 51.0995 45.7997 50.5996C46.9845 50.0755 47.9224 49.1518 48.5898 48.1011C48.725 47.8882 48.8506 47.6681 48.9668 47.4421C49.0843 47.6604 49.211 47.8727 49.3469 48.078C50.043 49.13 51.0183 50.0429 52.2424 50.5305C51.0266 51.0232 50.0586 51.9354 49.3673 52.9849C49.2207 53.2074 49.0849 53.4382 48.9597 53.6759C48.8352 53.4413 48.7003 53.2135 48.5549 52.9937ZM47.546 57.5432L47.8713 57.5079C47.8712 57.5088 47.8711 57.5097 47.871 57.5106L47.546 57.5432Z" fill="url(#paint1_linear_93_2)" stroke="url(#paint2_linear_93_2)" stroke-width="5"/>
<path d="M71.9013 71.6459L71.898 71.6078L71.9014 71.6459C71.9014 71.6459 71.9014 71.6459 71.9013 71.6459ZM82.6629 72.8876C82.6124 72.9142 82.5623 72.9412 82.5126 72.9686C81.2901 73.6436 80.1088 74.6922 79.5952 76.1668C79.0736 74.6884 77.8832 73.6387 76.6507 72.963C76.6036 72.9372 76.5562 72.9118 76.5085 72.8868C76.5528 72.8637 76.5967 72.8402 76.6404 72.8164C77.8754 72.1442 79.0712 71.0964 79.5956 69.6161C80.1169 71.0956 81.3077 72.146 82.5408 72.8219C82.5813 72.8441 82.6219 72.866 82.6629 72.8876Z" fill="url(#paint3_linear_93_2)" stroke="url(#paint4_linear_93_2)" stroke-width="5"/>
<mask id="path-4-inside-1_93_2" fill="white">
<path d="M52.0209 106.442C51.0568 106.243 50.0395 106.102 48.9952 106.024V106.024C48.4417 105.993 47.927 105.878 47.5326 105.698C47.1383 105.518 46.8869 105.282 46.8184 105.029C46.6446 104.552 46.3373 104.088 45.9042 103.646C45.4613 104.086 45.1535 104.551 44.9898 105.029V105.029C44.9177 105.282 44.6653 105.516 44.2716 105.696C43.8779 105.876 43.3651 105.991 42.813 106.024V106.024C41.7624 106.104 40.7383 106.244 39.7656 106.442C40.7347 106.645 41.76 106.785 42.813 106.86V106.86C43.3623 106.896 43.8713 107.013 44.2638 107.192C44.6562 107.371 44.9108 107.604 44.9898 107.855V107.855C45.1564 108.333 45.4641 108.798 45.9042 109.238C46.3443 108.798 46.6518 108.333 46.8184 107.855V107.855C46.8974 107.604 47.1522 107.371 47.5446 107.192C47.937 107.013 48.4459 106.896 48.9952 106.86V106.86C50.0418 106.787 51.0605 106.646 52.0209 106.442V106.442Z"/>
</mask>
<path d="M52.0209 106.442C51.0568 106.243 50.0395 106.102 48.9952 106.024V106.024C48.4417 105.993 47.927 105.878 47.5326 105.698C47.1383 105.518 46.8869 105.282 46.8184 105.029C46.6446 104.552 46.3373 104.088 45.9042 103.646C45.4613 104.086 45.1535 104.551 44.9898 105.029V105.029C44.9177 105.282 44.6653 105.516 44.2716 105.696C43.8779 105.876 43.3651 105.991 42.813 106.024V106.024C41.7624 106.104 40.7383 106.244 39.7656 106.442C40.7347 106.645 41.76 106.785 42.813 106.86V106.86C43.3623 106.896 43.8713 107.013 44.2638 107.192C44.6562 107.371 44.9108 107.604 44.9898 107.855V107.855C45.1564 108.333 45.4641 108.798 45.9042 109.238C46.3443 108.798 46.6518 108.333 46.8184 107.855V107.855C46.8974 107.604 47.1522 107.371 47.5446 107.192C47.937 107.013 48.4459 106.896 48.9952 106.86V106.86C50.0418 106.787 51.0605 106.646 52.0209 106.442V106.442Z" fill="url(#paint5_linear_93_2)"/>
<path d="M46.8184 105.029L51.6445 103.722L51.589 103.517L51.5162 103.318L46.8184 105.029ZM45.9042 103.646L49.4719 100.143L45.9503 96.5569L42.3824 100.097L45.9042 103.646ZM44.9898 105.029L40.2594 103.41L40.2177 103.532L40.1823 103.656L44.9898 105.029ZM42.813 106.024L42.5151 101.033L42.4757 101.036L42.4364 101.039L42.813 106.024ZM39.7656 106.442L38.768 101.543L38.7424 111.336L39.7656 106.442ZM42.813 106.86L42.4594 111.848L42.4722 111.848L42.4851 111.849L42.813 106.86ZM44.9898 107.855L40.2204 109.356L40.2434 109.429L40.2687 109.501L44.9898 107.855ZM45.9042 109.238L42.3691 112.774L45.9042 116.308L49.4393 112.774L45.9042 109.238ZM53.0334 101.546C51.8453 101.3 50.6135 101.131 49.3676 101.038L48.6227 111.01C49.4655 111.073 50.2684 111.186 51.0085 111.339L53.0334 101.546ZM49.2776 101.032C49.253 101.031 49.2569 101.029 49.2935 101.037C49.324 101.044 49.4374 101.071 49.6111 101.15L45.4542 110.245C46.5476 110.745 47.7034 110.959 48.7127 111.016L49.2776 101.032ZM49.6111 101.15C49.7727 101.224 50.1019 101.396 50.4699 101.74C50.8355 102.082 51.3751 102.728 51.6445 103.722L41.9923 106.337C42.6436 108.741 44.5724 109.842 45.4542 110.245L49.6111 101.15ZM51.5162 103.318C51.0507 102.04 50.2988 100.986 49.4719 100.143L42.3365 107.15C42.3759 107.19 42.2385 107.065 42.1206 106.741L51.5162 103.318ZM42.3824 100.097C41.5196 100.953 40.724 102.053 40.2594 103.41L49.7203 106.649C49.5831 107.05 49.403 107.219 49.426 107.196L42.3824 100.097ZM40.1823 103.656C40.4594 102.686 40.9909 102.058 41.3499 101.725C41.7118 101.389 42.0341 101.221 42.1931 101.148L46.3501 110.244C47.2333 109.84 49.1248 108.757 49.7974 106.403L40.1823 103.656ZM42.1931 101.148C42.3636 101.071 42.4746 101.044 42.5037 101.037C42.5388 101.029 42.5413 101.032 42.5151 101.033L43.111 111.015C44.1153 110.955 45.2635 110.74 46.3501 110.244L42.1931 101.148ZM42.4364 101.039C41.1898 101.133 39.9577 101.3 38.768 101.543L40.7633 111.342C41.519 111.188 42.335 111.075 43.1897 111.01L42.4364 101.039ZM38.7424 111.336C39.9462 111.588 41.1961 111.758 42.4594 111.848L43.1667 101.873C42.324 101.813 41.5231 101.702 40.7888 101.548L38.7424 111.336ZM42.4851 111.849C42.5142 111.851 42.5144 111.854 42.4822 111.846C42.4555 111.84 42.3494 111.815 42.1853 111.739L46.3422 102.644C45.269 102.154 44.1361 101.936 43.141 101.871L42.4851 111.849ZM42.1853 111.739C42.0318 111.669 41.7227 111.508 41.3727 111.189C41.0265 110.873 40.5109 110.279 40.2204 109.356L49.7593 106.354C49.049 104.097 47.2264 103.049 46.3422 102.644L42.1853 111.739ZM40.2687 109.501C40.7339 110.835 41.5168 111.922 42.3691 112.774L49.4393 105.702C49.4114 105.674 49.579 105.83 49.7109 106.208L40.2687 109.501ZM49.4393 112.774C50.2921 111.921 51.0746 110.835 51.5395 109.501L42.0973 106.208C42.229 105.831 42.3964 105.675 42.3691 105.702L49.4393 112.774ZM51.5878 109.356C51.2972 110.279 50.781 110.873 50.4351 111.189C50.0853 111.509 49.7764 111.669 49.6231 111.739L45.4661 102.644C44.5831 103.048 42.7594 104.096 42.049 106.354L51.5878 109.356ZM49.6231 111.739C49.4591 111.814 49.3531 111.84 49.3263 111.846C49.2939 111.854 49.2941 111.851 49.3231 111.849L48.6672 101.871C47.6719 101.936 46.5392 102.154 45.4661 102.644L49.6231 111.739ZM49.345 111.848C50.6072 111.759 51.8566 111.588 53.0587 111.333L50.9832 101.551C50.2644 101.704 49.4764 101.814 48.6454 101.872L49.345 111.848Z" fill="url(#paint6_linear_93_2)" mask="url(#path-4-inside-1_93_2)"/>
<path d="M236.483 26.5321C235.065 25.6704 233.624 24.8358 232.162 24.029C232.461 24.1052 232.768 24.1828 233.084 24.2612C234.414 24.591 235.637 25.0644 237.039 25.6067C237.323 25.7165 237.614 25.8291 237.915 25.944C244.42 28.5216 250.046 32.3132 254.355 36.9742C256.52 39.325 258.352 41.8571 259.823 44.5211C260.026 44.9353 260.224 45.3335 260.418 45.7216C260.928 46.746 261.403 47.7009 261.841 48.6987C262.208 49.5337 262.399 50.3045 262.638 51.2693C262.753 51.7337 262.879 52.2431 263.041 52.8263L263.57 54.907C263.657 55.4854 263.698 56.0824 263.744 56.7761C263.747 57.6036 263.801 58.4106 263.855 59.1458C263.863 59.2637 263.872 59.3793 263.88 59.493C263.888 59.596 263.895 59.6975 263.903 59.7976C263.472 58.7992 263.064 57.809 262.687 56.8035L262.657 56.7232L262.621 56.6452C262.518 56.4191 262.427 56.1753 262.293 55.8148C262.17 55.4821 262.009 55.0515 261.803 54.6066L261.773 54.5421L261.739 54.4795L260.741 52.616L258.808 48.8724L258.722 48.7047L258.611 48.5518C258.014 47.7292 257.482 46.9004 256.909 46.0086C256.734 45.7352 256.554 45.4559 256.368 45.1691C255.605 43.9198 254.735 42.7222 253.768 41.5849C252.896 40.3663 251.906 39.2158 250.809 38.1441C246.71 33.7246 241.885 29.8179 236.484 26.5326L236.483 26.5321Z" fill="url(#paint7_linear_93_2)" stroke="url(#paint8_linear_93_2)" stroke-width="5"/>
<path d="M549.029 145.875C550.622 143.507 552.216 141.139 553.858 138.814C578.101 104.479 594.618 51.4836 555.983 19.8007C519.546 -10.2158 472.677 7.19334 448.53 19.8007C447.434 20.368 446.297 20.8661 445.126 21.2917C434.341 28.0623 425.391 36.9691 418.951 47.3396C418.951 47.3396 419.071 37.8896 430.589 22.8046C427.329 22.2456 424.205 21.1614 421.365 19.6034C397.291 6.996 350.35 -10.4132 313.888 19.6034C275.374 51.2863 291.987 104.281 316.134 138.617C317.872 140.941 320.963 145.677 320.963 145.677" stroke="url(#paint9_linear_93_2)" stroke-width="5"/>
<path d="M332.826 50.2859L332.372 48.46L332.861 50.2944C332.849 50.2916 332.837 50.2888 332.826 50.2859ZM332.824 50.9252L332.372 52.7474L332.787 50.935C332.799 50.9317 332.811 50.9284 332.824 50.9252ZM332.904 50.6012L332.883 50.5162L332.9 50.4408L332.923 50.5256L332.904 50.6012ZM336.555 52.9937C335.886 51.9822 334.958 51.0995 333.8 50.5996C334.985 50.0755 335.922 49.1518 336.59 48.1011C336.725 47.8882 336.851 47.6681 336.967 47.4421C337.084 47.6604 337.211 47.8727 337.347 48.078C338.043 49.13 339.018 50.0429 340.242 50.5305C339.027 51.0232 338.059 51.9354 337.367 52.9849C337.221 53.2074 337.085 53.4382 336.96 53.6759C336.835 53.4413 336.7 53.2135 336.555 52.9937ZM335.546 57.5432L335.871 57.5079C335.871 57.5088 335.871 57.5097 335.871 57.5106L335.546 57.5432Z" fill="url(#paint10_linear_93_2)" stroke="url(#paint11_linear_93_2)" stroke-width="5"/>
<path d="M359.901 71.6459L359.898 71.6078L359.901 71.6459C359.901 71.6459 359.901 71.6459 359.901 71.6459ZM370.663 72.8876C370.612 72.9142 370.562 72.9412 370.513 72.9686C369.29 73.6436 368.109 74.6922 367.595 76.1668C367.074 74.6884 365.883 73.6387 364.651 72.963C364.604 72.9372 364.556 72.9118 364.509 72.8868C364.553 72.8637 364.597 72.8402 364.64 72.8164C365.875 72.1442 367.071 71.0964 367.596 69.6161C368.117 71.0956 369.308 72.146 370.541 72.8219C370.581 72.8441 370.622 72.866 370.663 72.8876Z" fill="url(#paint12_linear_93_2)" stroke="url(#paint13_linear_93_2)" stroke-width="5"/>
<mask id="path-10-inside-2_93_2" fill="white">
<path d="M340.021 106.442C339.057 106.243 338.039 106.102 336.995 106.024V106.024C336.442 105.993 335.927 105.878 335.533 105.698C335.138 105.518 334.887 105.282 334.818 105.029C334.645 104.552 334.337 104.088 333.904 103.646C333.461 104.086 333.154 104.551 332.99 105.029V105.029C332.918 105.282 332.665 105.516 332.272 105.696C331.878 105.876 331.365 105.991 330.813 106.024V106.024C329.762 106.104 328.738 106.244 327.766 106.442C328.735 106.645 329.76 106.785 330.813 106.86V106.86C331.362 106.896 331.871 107.013 332.264 107.192C332.656 107.371 332.911 107.604 332.99 107.855V107.855C333.156 108.333 333.464 108.798 333.904 109.238C334.344 108.798 334.652 108.333 334.818 107.855V107.855C334.897 107.604 335.152 107.371 335.545 107.192C335.937 107.013 336.446 106.896 336.995 106.86V106.86C338.042 106.787 339.061 106.646 340.021 106.442V106.442Z"/>
</mask>
<path d="M340.021 106.442C339.057 106.243 338.039 106.102 336.995 106.024V106.024C336.442 105.993 335.927 105.878 335.533 105.698C335.138 105.518 334.887 105.282 334.818 105.029C334.645 104.552 334.337 104.088 333.904 103.646C333.461 104.086 333.154 104.551 332.99 105.029V105.029C332.918 105.282 332.665 105.516 332.272 105.696C331.878 105.876 331.365 105.991 330.813 106.024V106.024C329.762 106.104 328.738 106.244 327.766 106.442C328.735 106.645 329.76 106.785 330.813 106.86V106.86C331.362 106.896 331.871 107.013 332.264 107.192C332.656 107.371 332.911 107.604 332.99 107.855V107.855C333.156 108.333 333.464 108.798 333.904 109.238C334.344 108.798 334.652 108.333 334.818 107.855V107.855C334.897 107.604 335.152 107.371 335.545 107.192C335.937 107.013 336.446 106.896 336.995 106.86V106.86C338.042 106.787 339.061 106.646 340.021 106.442V106.442Z" fill="url(#paint14_linear_93_2)"/>
<path d="M334.818 105.029L339.644 103.722L339.589 103.517L339.516 103.318L334.818 105.029ZM333.904 103.646L337.472 100.143L333.95 96.5569L330.382 100.097L333.904 103.646ZM332.99 105.029L328.259 103.41L328.218 103.532L328.182 103.656L332.99 105.029ZM330.813 106.024L330.515 101.033L330.476 101.036L330.436 101.039L330.813 106.024ZM327.766 106.442L326.768 101.543L326.742 111.336L327.766 106.442ZM330.813 106.86L330.459 111.848L330.472 111.848L330.485 111.849L330.813 106.86ZM332.99 107.855L328.22 109.356L328.243 109.429L328.269 109.501L332.99 107.855ZM333.904 109.238L330.369 112.774L333.904 116.308L337.439 112.774L333.904 109.238ZM341.033 101.546C339.845 101.3 338.613 101.131 337.368 101.038L336.623 111.01C337.466 111.073 338.268 111.186 339.008 111.339L341.033 101.546ZM337.278 101.032C337.253 101.031 337.257 101.029 337.293 101.037C337.324 101.044 337.437 101.071 337.611 101.15L333.454 110.245C334.548 110.745 335.703 110.959 336.713 111.016L337.278 101.032ZM337.611 101.15C337.773 101.224 338.102 101.396 338.47 101.74C338.835 102.082 339.375 102.728 339.644 103.722L329.992 106.337C330.644 108.741 332.572 109.842 333.454 110.245L337.611 101.15ZM339.516 103.318C339.051 102.04 338.299 100.986 337.472 100.143L330.336 107.15C330.376 107.19 330.238 107.065 330.121 106.741L339.516 103.318ZM330.382 100.097C329.52 100.953 328.724 102.053 328.259 103.41L337.72 106.649C337.583 107.05 337.403 107.219 337.426 107.196L330.382 100.097ZM328.182 103.656C328.459 102.686 328.991 102.058 329.35 101.725C329.712 101.389 330.034 101.221 330.193 101.148L334.35 110.244C335.233 109.84 337.125 108.757 337.797 106.403L328.182 103.656ZM330.193 101.148C330.364 101.071 330.475 101.044 330.504 101.037C330.539 101.029 330.541 101.032 330.515 101.033L331.111 111.015C332.115 110.955 333.263 110.74 334.35 110.244L330.193 101.148ZM330.436 101.039C329.19 101.133 327.958 101.3 326.768 101.543L328.763 111.342C329.519 111.188 330.335 111.075 331.19 111.01L330.436 101.039ZM326.742 111.336C327.946 111.588 329.196 111.758 330.459 111.848L331.167 101.873C330.324 101.813 329.523 101.702 328.789 101.548L326.742 111.336ZM330.485 111.849C330.514 111.851 330.514 111.854 330.482 111.846C330.455 111.84 330.349 111.815 330.185 111.739L334.342 102.644C333.269 102.154 332.136 101.936 331.141 101.871L330.485 111.849ZM330.185 111.739C330.032 111.669 329.723 111.508 329.373 111.189C329.027 110.873 328.511 110.279 328.22 109.356L337.759 106.354C337.049 104.097 335.226 103.049 334.342 102.644L330.185 111.739ZM328.269 109.501C328.734 110.835 329.517 111.922 330.369 112.774L337.439 105.702C337.411 105.674 337.579 105.83 337.711 106.208L328.269 109.501ZM337.439 112.774C338.292 111.921 339.075 110.835 339.54 109.501L330.097 106.208C330.229 105.831 330.396 105.675 330.369 105.702L337.439 112.774ZM339.588 109.356C339.297 110.279 338.781 110.873 338.435 111.189C338.085 111.509 337.776 111.669 337.623 111.739L333.466 102.644C332.583 103.048 330.759 104.096 330.049 106.354L339.588 109.356ZM337.623 111.739C337.459 111.814 337.353 111.84 337.326 111.846C337.294 111.854 337.294 111.851 337.323 111.849L336.667 101.871C335.672 101.936 334.539 102.154 333.466 102.644L337.623 111.739ZM337.345 111.848C338.607 111.759 339.857 111.588 341.059 111.333L338.983 101.551C338.264 101.704 337.476 101.814 336.645 101.872L337.345 111.848Z" fill="url(#paint15_linear_93_2)" mask="url(#path-10-inside-2_93_2)"/>
<path d="M524.483 26.5321C523.065 25.6704 521.624 24.8358 520.162 24.029C520.461 24.1052 520.768 24.1828 521.084 24.2612C522.414 24.591 523.637 25.0644 525.039 25.6067C525.323 25.7165 525.614 25.8291 525.915 25.944C532.42 28.5216 538.046 32.3132 542.355 36.9742C544.52 39.325 546.352 41.8571 547.823 44.5211C548.026 44.9353 548.224 45.3335 548.418 45.7216C548.928 46.746 549.403 47.7009 549.841 48.6987C550.208 49.5337 550.399 50.3045 550.638 51.2693C550.753 51.7337 550.879 52.2431 551.041 52.8263L551.57 54.907C551.657 55.4854 551.698 56.0824 551.744 56.7761C551.747 57.6036 551.801 58.4106 551.855 59.1458C551.863 59.2637 551.872 59.3793 551.88 59.493C551.888 59.596 551.895 59.6975 551.903 59.7976C551.472 58.7992 551.064 57.809 550.687 56.8035L550.657 56.7232L550.621 56.6452C550.518 56.4191 550.427 56.1753 550.293 55.8148C550.17 55.4821 550.009 55.0515 549.803 54.6066L549.773 54.5421L549.739 54.4795L548.741 52.616L546.808 48.8724L546.722 48.7047L546.611 48.5518C546.014 47.7292 545.482 46.9004 544.909 46.0086C544.734 45.7352 544.554 45.4559 544.368 45.1691C543.605 43.9198 542.735 42.7222 541.768 41.5849C540.896 40.3663 539.906 39.2158 538.809 38.1441C534.71 33.7246 529.885 29.8179 524.484 26.5326L524.483 26.5321Z" fill="url(#paint16_linear_93_2)" stroke="url(#paint17_linear_93_2)" stroke-width="5"/>
<path d="M837.029 145.875C838.622 143.507 840.216 141.139 841.858 138.814C866.101 104.479 882.618 51.4836 843.983 19.8007C807.546 -10.2158 760.677 7.19334 736.53 19.8007C735.434 20.368 734.297 20.8661 733.126 21.2917C722.341 28.0623 713.391 36.9691 706.951 47.3396C706.951 47.3396 707.071 37.8896 718.589 22.8046C715.329 22.2456 712.205 21.1614 709.365 19.6034C685.291 6.996 638.35 -10.4132 601.888 19.6034C563.374 51.2863 579.987 104.281 604.134 138.617C605.872 140.941 608.963 145.677 608.963 145.677" stroke="url(#paint18_linear_93_2)" stroke-width="5"/>
<path d="M620.826 50.2859L620.372 48.46L620.861 50.2944C620.849 50.2916 620.837 50.2888 620.826 50.2859ZM620.824 50.9252L620.372 52.7474L620.787 50.935C620.799 50.9317 620.811 50.9284 620.824 50.9252ZM620.904 50.6012L620.883 50.5162L620.9 50.4408L620.923 50.5256L620.904 50.6012ZM624.555 52.9937C623.886 51.9822 622.958 51.0995 621.8 50.5996C622.985 50.0755 623.922 49.1518 624.59 48.1011C624.725 47.8882 624.851 47.6681 624.967 47.4421C625.084 47.6604 625.211 47.8727 625.347 48.078C626.043 49.13 627.018 50.0429 628.242 50.5305C627.027 51.0232 626.059 51.9354 625.367 52.9849C625.221 53.2074 625.085 53.4382 624.96 53.6759C624.835 53.4413 624.7 53.2135 624.555 52.9937ZM623.546 57.5432L623.871 57.5079C623.871 57.5088 623.871 57.5097 623.871 57.5106L623.546 57.5432Z" fill="url(#paint19_linear_93_2)" stroke="url(#paint20_linear_93_2)" stroke-width="5"/>
<path d="M647.901 71.6459L647.898 71.6078L647.901 71.6459C647.901 71.6459 647.901 71.6459 647.901 71.6459ZM658.663 72.8876C658.612 72.9142 658.562 72.9412 658.513 72.9686C657.29 73.6436 656.109 74.6922 655.595 76.1668C655.074 74.6884 653.883 73.6387 652.651 72.963C652.604 72.9372 652.556 72.9118 652.509 72.8868C652.553 72.8637 652.597 72.8402 652.64 72.8164C653.875 72.1442 655.071 71.0964 655.596 69.6161C656.117 71.0956 657.308 72.146 658.541 72.8219C658.581 72.8441 658.622 72.866 658.663 72.8876Z" fill="url(#paint21_linear_93_2)" stroke="url(#paint22_linear_93_2)" stroke-width="5"/>
<mask id="path-16-inside-3_93_2" fill="white">
<path d="M628.021 106.442C627.057 106.243 626.039 106.102 624.995 106.024V106.024C624.442 105.993 623.927 105.878 623.533 105.698C623.138 105.518 622.887 105.282 622.818 105.029C622.645 104.552 622.337 104.088 621.904 103.646C621.461 104.086 621.154 104.551 620.99 105.029V105.029C620.918 105.282 620.665 105.516 620.272 105.696C619.878 105.876 619.365 105.991 618.813 106.024V106.024C617.762 106.104 616.738 106.244 615.766 106.442C616.735 106.645 617.76 106.785 618.813 106.86V106.86C619.362 106.896 619.871 107.013 620.264 107.192C620.656 107.371 620.911 107.604 620.99 107.855V107.855C621.156 108.333 621.464 108.798 621.904 109.238C622.344 108.798 622.652 108.333 622.818 107.855V107.855C622.897 107.604 623.152 107.371 623.545 107.192C623.937 107.013 624.446 106.896 624.995 106.86V106.86C626.042 106.787 627.061 106.646 628.021 106.442V106.442Z"/>
</mask>
<path d="M628.021 106.442C627.057 106.243 626.039 106.102 624.995 106.024V106.024C624.442 105.993 623.927 105.878 623.533 105.698C623.138 105.518 622.887 105.282 622.818 105.029C622.645 104.552 622.337 104.088 621.904 103.646C621.461 104.086 621.154 104.551 620.99 105.029V105.029C620.918 105.282 620.665 105.516 620.272 105.696C619.878 105.876 619.365 105.991 618.813 106.024V106.024C617.762 106.104 616.738 106.244 615.766 106.442C616.735 106.645 617.76 106.785 618.813 106.86V106.86C619.362 106.896 619.871 107.013 620.264 107.192C620.656 107.371 620.911 107.604 620.99 107.855V107.855C621.156 108.333 621.464 108.798 621.904 109.238C622.344 108.798 622.652 108.333 622.818 107.855V107.855C622.897 107.604 623.152 107.371 623.545 107.192C623.937 107.013 624.446 106.896 624.995 106.86V106.86C626.042 106.787 627.061 106.646 628.021 106.442V106.442Z" fill="url(#paint23_linear_93_2)"/>
<path d="M622.818 105.029L627.644 103.722L627.589 103.517L627.516 103.318L622.818 105.029ZM621.904 103.646L625.472 100.143L621.95 96.5569L618.382 100.097L621.904 103.646ZM620.99 105.029L616.259 103.41L616.218 103.532L616.182 103.656L620.99 105.029ZM618.813 106.024L618.515 101.033L618.476 101.036L618.436 101.039L618.813 106.024ZM615.766 106.442L614.768 101.543L614.742 111.336L615.766 106.442ZM618.813 106.86L618.459 111.848L618.472 111.848L618.485 111.849L618.813 106.86ZM620.99 107.855L616.22 109.356L616.243 109.429L616.269 109.501L620.99 107.855ZM621.904 109.238L618.369 112.774L621.904 116.308L625.439 112.774L621.904 109.238ZM629.033 101.546C627.845 101.3 626.613 101.131 625.368 101.038L624.623 111.01C625.466 111.073 626.268 111.186 627.008 111.339L629.033 101.546ZM625.278 101.032C625.253 101.031 625.257 101.029 625.293 101.037C625.324 101.044 625.437 101.071 625.611 101.15L621.454 110.245C622.548 110.745 623.703 110.959 624.713 111.016L625.278 101.032ZM625.611 101.15C625.773 101.224 626.102 101.396 626.47 101.74C626.835 102.082 627.375 102.728 627.644 103.722L617.992 106.337C618.644 108.741 620.572 109.842 621.454 110.245L625.611 101.15ZM627.516 103.318C627.051 102.04 626.299 100.986 625.472 100.143L618.336 107.15C618.376 107.19 618.238 107.065 618.121 106.741L627.516 103.318ZM618.382 100.097C617.52 100.953 616.724 102.053 616.259 103.41L625.72 106.649C625.583 107.05 625.403 107.219 625.426 107.196L618.382 100.097ZM616.182 103.656C616.459 102.686 616.991 102.058 617.35 101.725C617.712 101.389 618.034 101.221 618.193 101.148L622.35 110.244C623.233 109.84 625.125 108.757 625.797 106.403L616.182 103.656ZM618.193 101.148C618.364 101.071 618.475 101.044 618.504 101.037C618.539 101.029 618.541 101.032 618.515 101.033L619.111 111.015C620.115 110.955 621.263 110.74 622.35 110.244L618.193 101.148ZM618.436 101.039C617.19 101.133 615.958 101.3 614.768 101.543L616.763 111.342C617.519 111.188 618.335 111.075 619.19 111.01L618.436 101.039ZM614.742 111.336C615.946 111.588 617.196 111.758 618.459 111.848L619.167 101.873C618.324 101.813 617.523 101.702 616.789 101.548L614.742 111.336ZM618.485 111.849C618.514 111.851 618.514 111.854 618.482 111.846C618.455 111.84 618.349 111.815 618.185 111.739L622.342 102.644C621.269 102.154 620.136 101.936 619.141 101.871L618.485 111.849ZM618.185 111.739C618.032 111.669 617.723 111.508 617.373 111.189C617.027 110.873 616.511 110.279 616.22 109.356L625.759 106.354C625.049 104.097 623.226 103.049 622.342 102.644L618.185 111.739ZM616.269 109.501C616.734 110.835 617.517 111.922 618.369 112.774L625.439 105.702C625.411 105.674 625.579 105.83 625.711 106.208L616.269 109.501ZM625.439 112.774C626.292 111.921 627.075 110.835 627.54 109.501L618.097 106.208C618.229 105.831 618.396 105.675 618.369 105.702L625.439 112.774ZM627.588 109.356C627.297 110.279 626.781 110.873 626.435 111.189C626.085 111.509 625.776 111.669 625.623 111.739L621.466 102.644C620.583 103.048 618.759 104.096 618.049 106.354L627.588 109.356ZM625.623 111.739C625.459 111.814 625.353 111.84 625.326 111.846C625.294 111.854 625.294 111.851 625.323 111.849L624.667 101.871C623.672 101.936 622.539 102.154 621.466 102.644L625.623 111.739ZM625.345 111.848C626.607 111.759 627.857 111.588 629.059 111.333L626.983 101.551C626.264 101.704 625.476 101.814 624.645 101.872L625.345 111.848Z" fill="url(#paint24_linear_93_2)" mask="url(#path-16-inside-3_93_2)"/>
<path d="M812.483 26.5321C811.065 25.6704 809.624 24.8358 808.162 24.029C808.461 24.1052 808.768 24.1828 809.084 24.2612C810.414 24.591 811.637 25.0644 813.039 25.6067C813.323 25.7165 813.614 25.8291 813.915 25.944C820.42 28.5216 826.046 32.3132 830.355 36.9742C832.52 39.325 834.352 41.8571 835.823 44.5211C836.026 44.9353 836.224 45.3335 836.418 45.7216C836.928 46.746 837.403 47.7009 837.841 48.6987C838.208 49.5337 838.399 50.3045 838.638 51.2693C838.753 51.7337 838.879 52.2431 839.041 52.8263L839.57 54.907C839.657 55.4854 839.698 56.0824 839.744 56.7761C839.747 57.6036 839.801 58.4106 839.855 59.1458C839.863 59.2637 839.872 59.3793 839.88 59.493C839.888 59.596 839.895 59.6975 839.903 59.7976C839.472 58.7992 839.064 57.809 838.687 56.8035L838.657 56.7232L838.621 56.6452C838.518 56.4191 838.427 56.1753 838.293 55.8148C838.17 55.4821 838.009 55.0515 837.803 54.6066L837.773 54.5421L837.739 54.4795L836.741 52.616L834.808 48.8724L834.722 48.7047L834.611 48.5518C834.014 47.7292 833.482 46.9004 832.909 46.0086C832.734 45.7352 832.554 45.4559 832.368 45.1691C831.605 43.9198 830.735 42.7222 829.768 41.5849C828.896 40.3663 827.906 39.2158 826.809 38.1441C822.71 33.7246 817.885 29.8179 812.484 26.5326L812.483 26.5321Z" fill="url(#paint25_linear_93_2)" stroke="url(#paint26_linear_93_2)" stroke-width="5"/>
<path d="M1125.03 145.875C1126.62 143.507 1128.22 141.139 1129.86 138.814C1154.1 104.479 1170.62 51.4836 1131.98 19.8007C1095.55 -10.2158 1048.68 7.19334 1024.53 19.8007C1023.43 20.368 1022.3 20.8661 1021.13 21.2917C1010.34 28.0623 1001.39 36.9691 994.951 47.3396C994.951 47.3396 995.071 37.8896 1006.59 22.8046C1003.33 22.2456 1000.21 21.1614 997.365 19.6034C973.291 6.996 926.35 -10.4132 889.888 19.6034C851.374 51.2863 867.987 104.281 892.134 138.617C893.872 140.941 896.963 145.677 896.963 145.677" stroke="url(#paint27_linear_93_2)" stroke-width="5"/>
<path d="M908.826 50.2859L908.372 48.46L908.861 50.2944C908.849 50.2916 908.837 50.2888 908.826 50.2859ZM908.824 50.9252L908.372 52.7474L908.787 50.935C908.799 50.9317 908.811 50.9284 908.824 50.9252ZM908.904 50.6012L908.883 50.5162L908.9 50.4408L908.923 50.5256L908.904 50.6012ZM912.555 52.9937C911.886 51.9822 910.958 51.0995 909.8 50.5996C910.985 50.0755 911.922 49.1518 912.59 48.1011C912.725 47.8882 912.851 47.6681 912.967 47.4421C913.084 47.6604 913.211 47.8727 913.347 48.078C914.043 49.13 915.018 50.0429 916.242 50.5305C915.027 51.0232 914.059 51.9354 913.367 52.9849C913.221 53.2074 913.085 53.4382 912.96 53.6759C912.835 53.4413 912.7 53.2135 912.555 52.9937ZM911.546 57.5432L911.871 57.5079C911.871 57.5088 911.871 57.5097 911.871 57.5106L911.546 57.5432Z" fill="url(#paint28_linear_93_2)" stroke="url(#paint29_linear_93_2)" stroke-width="5"/>
<path d="M935.901 71.6459L935.898 71.6078L935.901 71.6459C935.901 71.6459 935.901 71.6459 935.901 71.6459ZM946.663 72.8876C946.612 72.9142 946.562 72.9412 946.513 72.9686C945.29 73.6436 944.109 74.6922 943.595 76.1668C943.074 74.6884 941.883 73.6387 940.651 72.963C940.604 72.9372 940.556 72.9118 940.509 72.8868C940.553 72.8637 940.597 72.8402 940.64 72.8164C941.875 72.1442 943.071 71.0964 943.596 69.6161C944.117 71.0956 945.308 72.146 946.541 72.8219C946.581 72.8441 946.622 72.866 946.663 72.8876Z" fill="url(#paint30_linear_93_2)" stroke="url(#paint31_linear_93_2)" stroke-width="5"/>
<mask id="path-22-inside-4_93_2" fill="white">
<path d="M916.021 106.442C915.057 106.243 914.039 106.102 912.995 106.024V106.024C912.442 105.993 911.927 105.878 911.533 105.698C911.138 105.518 910.887 105.282 910.818 105.029C910.645 104.552 910.337 104.088 909.904 103.646C909.461 104.086 909.154 104.551 908.99 105.029V105.029C908.918 105.282 908.665 105.516 908.272 105.696C907.878 105.876 907.365 105.991 906.813 106.024V106.024C905.762 106.104 904.738 106.244 903.766 106.442C904.735 106.645 905.76 106.785 906.813 106.86V106.86C907.362 106.896 907.871 107.013 908.264 107.192C908.656 107.371 908.911 107.604 908.99 107.855V107.855C909.156 108.333 909.464 108.798 909.904 109.238C910.344 108.798 910.652 108.333 910.818 107.855V107.855C910.897 107.604 911.152 107.371 911.545 107.192C911.937 107.013 912.446 106.896 912.995 106.86V106.86C914.042 106.787 915.061 106.646 916.021 106.442V106.442Z"/>
</mask>
<path d="M916.021 106.442C915.057 106.243 914.039 106.102 912.995 106.024V106.024C912.442 105.993 911.927 105.878 911.533 105.698C911.138 105.518 910.887 105.282 910.818 105.029C910.645 104.552 910.337 104.088 909.904 103.646C909.461 104.086 909.154 104.551 908.99 105.029V105.029C908.918 105.282 908.665 105.516 908.272 105.696C907.878 105.876 907.365 105.991 906.813 106.024V106.024C905.762 106.104 904.738 106.244 903.766 106.442C904.735 106.645 905.76 106.785 906.813 106.86V106.86C907.362 106.896 907.871 107.013 908.264 107.192C908.656 107.371 908.911 107.604 908.99 107.855V107.855C909.156 108.333 909.464 108.798 909.904 109.238C910.344 108.798 910.652 108.333 910.818 107.855V107.855C910.897 107.604 911.152 107.371 911.545 107.192C911.937 107.013 912.446 106.896 912.995 106.86V106.86C914.042 106.787 915.061 106.646 916.021 106.442V106.442Z" fill="url(#paint32_linear_93_2)"/>
<path d="M910.818 105.029L915.644 103.722L915.589 103.517L915.516 103.318L910.818 105.029ZM909.904 103.646L913.472 100.143L909.95 96.5569L906.382 100.097L909.904 103.646ZM908.99 105.029L904.259 103.41L904.218 103.532L904.182 103.656L908.99 105.029ZM906.813 106.024L906.515 101.033L906.476 101.036L906.436 101.039L906.813 106.024ZM903.766 106.442L902.768 101.543L902.742 111.336L903.766 106.442ZM906.813 106.86L906.459 111.848L906.472 111.848L906.485 111.849L906.813 106.86ZM908.99 107.855L904.22 109.356L904.243 109.429L904.269 109.501L908.99 107.855ZM909.904 109.238L906.369 112.774L909.904 116.308L913.439 112.774L909.904 109.238ZM917.033 101.546C915.845 101.3 914.613 101.131 913.368 101.038L912.623 111.01C913.466 111.073 914.268 111.186 915.008 111.339L917.033 101.546ZM913.278 101.032C913.253 101.031 913.257 101.029 913.293 101.037C913.324 101.044 913.437 101.071 913.611 101.15L909.454 110.245C910.548 110.745 911.703 110.959 912.713 111.016L913.278 101.032ZM913.611 101.15C913.773 101.224 914.102 101.396 914.47 101.74C914.835 102.082 915.375 102.728 915.644 103.722L905.992 106.337C906.644 108.741 908.572 109.842 909.454 110.245L913.611 101.15ZM915.516 103.318C915.051 102.04 914.299 100.986 913.472 100.143L906.336 107.15C906.376 107.19 906.238 107.065 906.121 106.741L915.516 103.318ZM906.382 100.097C905.52 100.953 904.724 102.053 904.259 103.41L913.72 106.649C913.583 107.05 913.403 107.219 913.426 107.196L906.382 100.097ZM904.182 103.656C904.459 102.686 904.991 102.058 905.35 101.725C905.712 101.389 906.034 101.221 906.193 101.148L910.35 110.244C911.233 109.84 913.125 108.757 913.797 106.403L904.182 103.656ZM906.193 101.148C906.364 101.071 906.475 101.044 906.504 101.037C906.539 101.029 906.541 101.032 906.515 101.033L907.111 111.015C908.115 110.955 909.263 110.74 910.35 110.244L906.193 101.148ZM906.436 101.039C905.19 101.133 903.958 101.3 902.768 101.543L904.763 111.342C905.519 111.188 906.335 111.075 907.19 111.01L906.436 101.039ZM902.742 111.336C903.946 111.588 905.196 111.758 906.459 111.848L907.167 101.873C906.324 101.813 905.523 101.702 904.789 101.548L902.742 111.336ZM906.485 111.849C906.514 111.851 906.514 111.854 906.482 111.846C906.455 111.84 906.349 111.815 906.185 111.739L910.342 102.644C909.269 102.154 908.136 101.936 907.141 101.871L906.485 111.849ZM906.185 111.739C906.032 111.669 905.723 111.508 905.373 111.189C905.027 110.873 904.511 110.279 904.22 109.356L913.759 106.354C913.049 104.097 911.226 103.049 910.342 102.644L906.185 111.739ZM904.269 109.501C904.734 110.835 905.517 111.922 906.369 112.774L913.439 105.702C913.411 105.674 913.579 105.83 913.711 106.208L904.269 109.501ZM913.439 112.774C914.292 111.921 915.075 110.835 915.54 109.501L906.097 106.208C906.229 105.831 906.396 105.675 906.369 105.702L913.439 112.774ZM915.588 109.356C915.297 110.279 914.781 110.873 914.435 111.189C914.085 111.509 913.776 111.669 913.623 111.739L909.466 102.644C908.583 103.048 906.759 104.096 906.049 106.354L915.588 109.356ZM913.623 111.739C913.459 111.814 913.353 111.84 913.326 111.846C913.294 111.854 913.294 111.851 913.323 111.849L912.667 101.871C911.672 101.936 910.539 102.154 909.466 102.644L913.623 111.739ZM913.345 111.848C914.607 111.759 915.857 111.588 917.059 111.333L914.983 101.551C914.264 101.704 913.476 101.814 912.645 101.872L913.345 111.848Z" fill="url(#paint33_linear_93_2)" mask="url(#path-22-inside-4_93_2)"/>
<path d="M1100.48 26.5321C1099.06 25.6704 1097.62 24.8358 1096.16 24.029C1096.46 24.1052 1096.77 24.1828 1097.08 24.2612C1098.41 24.591 1099.64 25.0644 1101.04 25.6067C1101.32 25.7165 1101.61 25.8291 1101.92 25.944C1108.42 28.5216 1114.05 32.3132 1118.36 36.9742C1120.52 39.325 1122.35 41.8571 1123.82 44.5211C1124.03 44.9353 1124.22 45.3335 1124.42 45.7216C1124.93 46.746 1125.4 47.7009 1125.84 48.6987C1126.21 49.5337 1126.4 50.3045 1126.64 51.2693C1126.75 51.7337 1126.88 52.2431 1127.04 52.8263L1127.57 54.907C1127.66 55.4854 1127.7 56.0824 1127.74 56.7761C1127.75 57.6036 1127.8 58.4106 1127.85 59.1458C1127.86 59.2637 1127.87 59.3793 1127.88 59.493C1127.89 59.596 1127.9 59.6975 1127.9 59.7976C1127.47 58.7992 1127.06 57.809 1126.69 56.8035L1126.66 56.7232L1126.62 56.6452C1126.52 56.4191 1126.43 56.1753 1126.29 55.8148C1126.17 55.4821 1126.01 55.0515 1125.8 54.6066L1125.77 54.5421L1125.74 54.4795L1124.74 52.616L1122.81 48.8724L1122.72 48.7047L1122.61 48.5518C1122.01 47.7292 1121.48 46.9004 1120.91 46.0086C1120.73 45.7352 1120.55 45.4559 1120.37 45.1691C1119.6 43.9198 1118.74 42.7222 1117.77 41.5849C1116.9 40.3663 1115.91 39.2158 1114.81 38.1441C1110.71 33.7246 1105.88 29.8179 1100.48 26.5326L1100.48 26.5321Z" fill="url(#paint34_linear_93_2)" stroke="url(#paint35_linear_93_2)" stroke-width="5"/>
<path d="M1413.03 145.875C1414.62 143.507 1416.22 141.139 1417.86 138.814C1442.1 104.479 1458.62 51.4836 1419.98 19.8007C1383.55 -10.2158 1336.68 7.19334 1312.53 19.8007C1311.43 20.368 1310.3 20.8661 1309.13 21.2917C1298.34 28.0623 1289.39 36.9691 1282.95 47.3396C1282.95 47.3396 1283.07 37.8896 1294.59 22.8046C1291.33 22.2456 1288.21 21.1614 1285.37 19.6034C1261.29 6.996 1214.35 -10.4132 1177.89 19.6034C1139.37 51.2863 1155.99 104.281 1180.13 138.617C1181.87 140.941 1184.96 145.677 1184.96 145.677" stroke="url(#paint36_linear_93_2)" stroke-width="5"/>
<path d="M1196.83 50.2859L1196.37 48.46L1196.86 50.2944C1196.85 50.2916 1196.84 50.2888 1196.83 50.2859ZM1196.82 50.9252L1196.37 52.7474L1196.79 50.935C1196.8 50.9317 1196.81 50.9284 1196.82 50.9252ZM1196.9 50.6012L1196.88 50.5162L1196.9 50.4408L1196.92 50.5256L1196.9 50.6012ZM1200.55 52.9937C1199.89 51.9822 1198.96 51.0995 1197.8 50.5996C1198.98 50.0755 1199.92 49.1518 1200.59 48.1011C1200.72 47.8882 1200.85 47.6681 1200.97 47.4421C1201.08 47.6604 1201.21 47.8727 1201.35 48.078C1202.04 49.13 1203.02 50.0429 1204.24 50.5305C1203.03 51.0232 1202.06 51.9354 1201.37 52.9849C1201.22 53.2074 1201.08 53.4382 1200.96 53.6759C1200.84 53.4413 1200.7 53.2135 1200.55 52.9937ZM1199.55 57.5432L1199.87 57.5079C1199.87 57.5088 1199.87 57.5097 1199.87 57.5106L1199.55 57.5432Z" fill="url(#paint37_linear_93_2)" stroke="url(#paint38_linear_93_2)" stroke-width="5"/>
<path d="M1223.9 71.6459L1223.9 71.6078L1223.9 71.6459C1223.9 71.6459 1223.9 71.6459 1223.9 71.6459ZM1234.66 72.8876C1234.61 72.9142 1234.56 72.9412 1234.51 72.9686C1233.29 73.6436 1232.11 74.6922 1231.6 76.1668C1231.07 74.6884 1229.88 73.6387 1228.65 72.963C1228.6 72.9372 1228.56 72.9118 1228.51 72.8868C1228.55 72.8637 1228.6 72.8402 1228.64 72.8164C1229.88 72.1442 1231.07 71.0964 1231.6 69.6161C1232.12 71.0956 1233.31 72.146 1234.54 72.8219C1234.58 72.8441 1234.62 72.866 1234.66 72.8876Z" fill="url(#paint39_linear_93_2)" stroke="url(#paint40_linear_93_2)" stroke-width="5"/>
<mask id="path-28-inside-5_93_2" fill="white">
<path d="M1204.02 106.442C1203.06 106.243 1202.04 106.102 1201 106.024V106.024C1200.44 105.993 1199.93 105.878 1199.53 105.698C1199.14 105.518 1198.89 105.282 1198.82 105.029C1198.64 104.552 1198.34 104.088 1197.9 103.646C1197.46 104.086 1197.15 104.551 1196.99 105.029V105.029C1196.92 105.282 1196.67 105.516 1196.27 105.696C1195.88 105.876 1195.37 105.991 1194.81 106.024V106.024C1193.76 106.104 1192.74 106.244 1191.77 106.442C1192.73 106.645 1193.76 106.785 1194.81 106.86V106.86C1195.36 106.896 1195.87 107.013 1196.26 107.192C1196.66 107.371 1196.91 107.604 1196.99 107.855V107.855C1197.16 108.333 1197.46 108.798 1197.9 109.238C1198.34 108.798 1198.65 108.333 1198.82 107.855V107.855C1198.9 107.604 1199.15 107.371 1199.54 107.192C1199.94 107.013 1200.45 106.896 1201 106.86V106.86C1202.04 106.787 1203.06 106.646 1204.02 106.442V106.442Z"/>
</mask>
<path d="M1204.02 106.442C1203.06 106.243 1202.04 106.102 1201 106.024V106.024C1200.44 105.993 1199.93 105.878 1199.53 105.698C1199.14 105.518 1198.89 105.282 1198.82 105.029C1198.64 104.552 1198.34 104.088 1197.9 103.646C1197.46 104.086 1197.15 104.551 1196.99 105.029V105.029C1196.92 105.282 1196.67 105.516 1196.27 105.696C1195.88 105.876 1195.37 105.991 1194.81 106.024V106.024C1193.76 106.104 1192.74 106.244 1191.77 106.442C1192.73 106.645 1193.76 106.785 1194.81 106.86V106.86C1195.36 106.896 1195.87 107.013 1196.26 107.192C1196.66 107.371 1196.91 107.604 1196.99 107.855V107.855C1197.16 108.333 1197.46 108.798 1197.9 109.238C1198.34 108.798 1198.65 108.333 1198.82 107.855V107.855C1198.9 107.604 1199.15 107.371 1199.54 107.192C1199.94 107.013 1200.45 106.896 1201 106.86V106.86C1202.04 106.787 1203.06 106.646 1204.02 106.442V106.442Z" fill="url(#paint41_linear_93_2)"/>
<path d="M1198.82 105.029L1203.64 103.722L1203.59 103.517L1203.52 103.318L1198.82 105.029ZM1197.9 103.646L1201.47 100.143L1197.95 96.5569L1194.38 100.097L1197.9 103.646ZM1196.99 105.029L1192.26 103.41L1192.22 103.532L1192.18 103.656L1196.99 105.029ZM1194.81 106.024L1194.52 101.033L1194.48 101.036L1194.44 101.039L1194.81 106.024ZM1191.77 106.442L1190.77 101.543L1190.74 111.336L1191.77 106.442ZM1194.81 106.86L1194.46 111.848L1194.47 111.848L1194.49 111.849L1194.81 106.86ZM1196.99 107.855L1192.22 109.356L1192.24 109.429L1192.27 109.501L1196.99 107.855ZM1197.9 109.238L1194.37 112.774L1197.9 116.308L1201.44 112.774L1197.9 109.238ZM1205.03 101.546C1203.85 101.3 1202.61 101.131 1201.37 101.038L1200.62 111.01C1201.47 111.073 1202.27 111.186 1203.01 111.339L1205.03 101.546ZM1201.28 101.032C1201.25 101.031 1201.26 101.029 1201.29 101.037C1201.32 101.044 1201.44 101.071 1201.61 101.15L1197.45 110.245C1198.55 110.745 1199.7 110.959 1200.71 111.016L1201.28 101.032ZM1201.61 101.15C1201.77 101.224 1202.1 101.396 1202.47 101.74C1202.84 102.082 1203.38 102.728 1203.64 103.722L1193.99 106.337C1194.64 108.741 1196.57 109.842 1197.45 110.245L1201.61 101.15ZM1203.52 103.318C1203.05 102.04 1202.3 100.986 1201.47 100.143L1194.34 107.15C1194.38 107.19 1194.24 107.065 1194.12 106.741L1203.52 103.318ZM1194.38 100.097C1193.52 100.953 1192.72 102.053 1192.26 103.41L1201.72 106.649C1201.58 107.05 1201.4 107.219 1201.43 107.196L1194.38 100.097ZM1192.18 103.656C1192.46 102.686 1192.99 102.058 1193.35 101.725C1193.71 101.389 1194.03 101.221 1194.19 101.148L1198.35 110.244C1199.23 109.84 1201.12 108.757 1201.8 106.403L1192.18 103.656ZM1194.19 101.148C1194.36 101.071 1194.47 101.044 1194.5 101.037C1194.54 101.029 1194.54 101.032 1194.52 101.033L1195.11 111.015C1196.12 110.955 1197.26 110.74 1198.35 110.244L1194.19 101.148ZM1194.44 101.039C1193.19 101.133 1191.96 101.3 1190.77 101.543L1192.76 111.342C1193.52 111.188 1194.34 111.075 1195.19 111.01L1194.44 101.039ZM1190.74 111.336C1191.95 111.588 1193.2 111.758 1194.46 111.848L1195.17 101.873C1194.32 101.813 1193.52 101.702 1192.79 101.548L1190.74 111.336ZM1194.49 111.849C1194.51 111.851 1194.51 111.854 1194.48 111.846C1194.46 111.84 1194.35 111.815 1194.19 111.739L1198.34 102.644C1197.27 102.154 1196.14 101.936 1195.14 101.871L1194.49 111.849ZM1194.19 111.739C1194.03 111.669 1193.72 111.508 1193.37 111.189C1193.03 110.873 1192.51 110.279 1192.22 109.356L1201.76 106.354C1201.05 104.097 1199.23 103.049 1198.34 102.644L1194.19 111.739ZM1192.27 109.501C1192.73 110.835 1193.52 111.922 1194.37 112.774L1201.44 105.702C1201.41 105.674 1201.58 105.83 1201.71 106.208L1192.27 109.501ZM1201.44 112.774C1202.29 111.921 1203.07 110.835 1203.54 109.501L1194.1 106.208C1194.23 105.831 1194.4 105.675 1194.37 105.702L1201.44 112.774ZM1203.59 109.356C1203.3 110.279 1202.78 110.873 1202.44 111.189C1202.09 111.509 1201.78 111.669 1201.62 111.739L1197.47 102.644C1196.58 103.048 1194.76 104.096 1194.05 106.354L1203.59 109.356ZM1201.62 111.739C1201.46 111.814 1201.35 111.84 1201.33 111.846C1201.29 111.854 1201.29 111.851 1201.32 111.849L1200.67 101.871C1199.67 101.936 1198.54 102.154 1197.47 102.644L1201.62 111.739ZM1201.34 111.848C1202.61 111.759 1203.86 111.588 1205.06 111.333L1202.98 101.551C1202.26 101.704 1201.48 101.814 1200.65 101.872L1201.34 111.848Z" fill="url(#paint42_linear_93_2)" mask="url(#path-28-inside-5_93_2)"/>
<path d="M1388.48 26.5321C1387.06 25.6704 1385.62 24.8358 1384.16 24.029C1384.46 24.1052 1384.77 24.1828 1385.08 24.2612C1386.41 24.591 1387.64 25.0644 1389.04 25.6067C1389.32 25.7165 1389.61 25.8291 1389.92 25.944C1396.42 28.5216 1402.05 32.3132 1406.36 36.9742C1408.52 39.325 1410.35 41.8571 1411.82 44.5211C1412.03 44.9353 1412.22 45.3335 1412.42 45.7216C1412.93 46.746 1413.4 47.7009 1413.84 48.6987C1414.21 49.5337 1414.4 50.3045 1414.64 51.2693C1414.75 51.7337 1414.88 52.2431 1415.04 52.8263L1415.57 54.907C1415.66 55.4854 1415.7 56.0824 1415.74 56.7761C1415.75 57.6036 1415.8 58.4106 1415.85 59.1458C1415.86 59.2637 1415.87 59.3793 1415.88 59.493C1415.89 59.596 1415.9 59.6975 1415.9 59.7976C1415.47 58.7992 1415.06 57.809 1414.69 56.8035L1414.66 56.7232L1414.62 56.6452C1414.52 56.4191 1414.43 56.1753 1414.29 55.8148C1414.17 55.4821 1414.01 55.0515 1413.8 54.6066L1413.77 54.5421L1413.74 54.4795L1412.74 52.616L1410.81 48.8724L1410.72 48.7047L1410.61 48.5518C1410.01 47.7292 1409.48 46.9004 1408.91 46.0086C1408.73 45.7352 1408.55 45.4559 1408.37 45.1691C1407.6 43.9198 1406.74 42.7222 1405.77 41.5849C1404.9 40.3663 1403.91 39.2158 1402.81 38.1441C1398.71 33.7246 1393.88 29.8179 1388.48 26.5326L1388.48 26.5321Z" fill="url(#paint43_linear_93_2)" stroke="url(#paint44_linear_93_2)" stroke-width="5"/>
<path d="M1701.03 145.875C1702.62 143.507 1704.22 141.139 1705.86 138.814C1730.1 104.479 1746.62 51.4836 1707.98 19.8007C1671.55 -10.2158 1624.68 7.19334 1600.53 19.8007C1599.43 20.368 1598.3 20.8661 1597.13 21.2917C1586.34 28.0623 1577.39 36.9691 1570.95 47.3396C1570.95 47.3396 1571.07 37.8896 1582.59 22.8046C1579.33 22.2456 1576.21 21.1614 1573.37 19.6034C1549.29 6.996 1502.35 -10.4132 1465.89 19.6034C1427.37 51.2863 1443.99 104.281 1468.13 138.617C1469.87 140.941 1472.96 145.677 1472.96 145.677" stroke="url(#paint45_linear_93_2)" stroke-width="5"/>
<path d="M1484.83 50.2859L1484.37 48.46L1484.86 50.2944C1484.85 50.2916 1484.84 50.2888 1484.83 50.2859ZM1484.82 50.9252L1484.37 52.7474L1484.79 50.935C1484.8 50.9317 1484.81 50.9284 1484.82 50.9252ZM1484.9 50.6012L1484.88 50.5162L1484.9 50.4408L1484.92 50.5256L1484.9 50.6012ZM1488.55 52.9937C1487.89 51.9822 1486.96 51.0995 1485.8 50.5996C1486.98 50.0755 1487.92 49.1518 1488.59 48.1011C1488.72 47.8882 1488.85 47.6681 1488.97 47.4421C1489.08 47.6604 1489.21 47.8727 1489.35 48.078C1490.04 49.13 1491.02 50.0429 1492.24 50.5305C1491.03 51.0232 1490.06 51.9354 1489.37 52.9849C1489.22 53.2074 1489.08 53.4382 1488.96 53.6759C1488.84 53.4413 1488.7 53.2135 1488.55 52.9937ZM1487.55 57.5432L1487.87 57.5079C1487.87 57.5088 1487.87 57.5097 1487.87 57.5106L1487.55 57.5432Z" fill="url(#paint46_linear_93_2)" stroke="url(#paint47_linear_93_2)" stroke-width="5"/>
<path d="M1511.9 71.6459L1511.9 71.6078L1511.9 71.6459C1511.9 71.6459 1511.9 71.6459 1511.9 71.6459ZM1522.66 72.8876C1522.61 72.9142 1522.56 72.9412 1522.51 72.9686C1521.29 73.6436 1520.11 74.6922 1519.6 76.1668C1519.07 74.6884 1517.88 73.6387 1516.65 72.963C1516.6 72.9372 1516.56 72.9118 1516.51 72.8868C1516.55 72.8637 1516.6 72.8402 1516.64 72.8164C1517.88 72.1442 1519.07 71.0964 1519.6 69.6161C1520.12 71.0956 1521.31 72.146 1522.54 72.8219C1522.58 72.8441 1522.62 72.866 1522.66 72.8876Z" fill="url(#paint48_linear_93_2)" stroke="url(#paint49_linear_93_2)" stroke-width="5"/>
<mask id="path-34-inside-6_93_2" fill="white">
<path d="M1492.02 106.442C1491.06 106.243 1490.04 106.102 1489 106.024V106.024C1488.44 105.993 1487.93 105.878 1487.53 105.698C1487.14 105.518 1486.89 105.282 1486.82 105.029C1486.64 104.552 1486.34 104.088 1485.9 103.646C1485.46 104.086 1485.15 104.551 1484.99 105.029V105.029C1484.92 105.282 1484.67 105.516 1484.27 105.696C1483.88 105.876 1483.37 105.991 1482.81 106.024V106.024C1481.76 106.104 1480.74 106.244 1479.77 106.442C1480.73 106.645 1481.76 106.785 1482.81 106.86V106.86C1483.36 106.896 1483.87 107.013 1484.26 107.192C1484.66 107.371 1484.91 107.604 1484.99 107.855V107.855C1485.16 108.333 1485.46 108.798 1485.9 109.238C1486.34 108.798 1486.65 108.333 1486.82 107.855V107.855C1486.9 107.604 1487.15 107.371 1487.54 107.192C1487.94 107.013 1488.45 106.896 1489 106.86V106.86C1490.04 106.787 1491.06 106.646 1492.02 106.442V106.442Z"/>
</mask>
<path d="M1492.02 106.442C1491.06 106.243 1490.04 106.102 1489 106.024V106.024C1488.44 105.993 1487.93 105.878 1487.53 105.698C1487.14 105.518 1486.89 105.282 1486.82 105.029C1486.64 104.552 1486.34 104.088 1485.9 103.646C1485.46 104.086 1485.15 104.551 1484.99 105.029V105.029C1484.92 105.282 1484.67 105.516 1484.27 105.696C1483.88 105.876 1483.37 105.991 1482.81 106.024V106.024C1481.76 106.104 1480.74 106.244 1479.77 106.442C1480.73 106.645 1481.76 106.785 1482.81 106.86V106.86C1483.36 106.896 1483.87 107.013 1484.26 107.192C1484.66 107.371 1484.91 107.604 1484.99 107.855V107.855C1485.16 108.333 1485.46 108.798 1485.9 109.238C1486.34 108.798 1486.65 108.333 1486.82 107.855V107.855C1486.9 107.604 1487.15 107.371 1487.54 107.192C1487.94 107.013 1488.45 106.896 1489 106.86V106.86C1490.04 106.787 1491.06 106.646 1492.02 106.442V106.442Z" fill="url(#paint50_linear_93_2)"/>
<path d="M1486.82 105.029L1491.64 103.722L1491.59 103.517L1491.52 103.318L1486.82 105.029ZM1485.9 103.646L1489.47 100.143L1485.95 96.5569L1482.38 100.097L1485.9 103.646ZM1484.99 105.029L1480.26 103.41L1480.22 103.532L1480.18 103.656L1484.99 105.029ZM1482.81 106.024L1482.52 101.033L1482.48 101.036L1482.44 101.039L1482.81 106.024ZM1479.77 106.442L1478.77 101.543L1478.74 111.336L1479.77 106.442ZM1482.81 106.86L1482.46 111.848L1482.47 111.848L1482.49 111.849L1482.81 106.86ZM1484.99 107.855L1480.22 109.356L1480.24 109.429L1480.27 109.501L1484.99 107.855ZM1485.9 109.238L1482.37 112.774L1485.9 116.308L1489.44 112.774L1485.9 109.238ZM1493.03 101.546C1491.85 101.3 1490.61 101.131 1489.37 101.038L1488.62 111.01C1489.47 111.073 1490.27 111.186 1491.01 111.339L1493.03 101.546ZM1489.28 101.032C1489.25 101.031 1489.26 101.029 1489.29 101.037C1489.32 101.044 1489.44 101.071 1489.61 101.15L1485.45 110.245C1486.55 110.745 1487.7 110.959 1488.71 111.016L1489.28 101.032ZM1489.61 101.15C1489.77 101.224 1490.1 101.396 1490.47 101.74C1490.84 102.082 1491.38 102.728 1491.64 103.722L1481.99 106.337C1482.64 108.741 1484.57 109.842 1485.45 110.245L1489.61 101.15ZM1491.52 103.318C1491.05 102.04 1490.3 100.986 1489.47 100.143L1482.34 107.15C1482.38 107.19 1482.24 107.065 1482.12 106.741L1491.52 103.318ZM1482.38 100.097C1481.52 100.953 1480.72 102.053 1480.26 103.41L1489.72 106.649C1489.58 107.05 1489.4 107.219 1489.43 107.196L1482.38 100.097ZM1480.18 103.656C1480.46 102.686 1480.99 102.058 1481.35 101.725C1481.71 101.389 1482.03 101.221 1482.19 101.148L1486.35 110.244C1487.23 109.84 1489.12 108.757 1489.8 106.403L1480.18 103.656ZM1482.19 101.148C1482.36 101.071 1482.47 101.044 1482.5 101.037C1482.54 101.029 1482.54 101.032 1482.52 101.033L1483.11 111.015C1484.12 110.955 1485.26 110.74 1486.35 110.244L1482.19 101.148ZM1482.44 101.039C1481.19 101.133 1479.96 101.3 1478.77 101.543L1480.76 111.342C1481.52 111.188 1482.34 111.075 1483.19 111.01L1482.44 101.039ZM1478.74 111.336C1479.95 111.588 1481.2 111.758 1482.46 111.848L1483.17 101.873C1482.32 101.813 1481.52 101.702 1480.79 101.548L1478.74 111.336ZM1482.49 111.849C1482.51 111.851 1482.51 111.854 1482.48 111.846C1482.46 111.84 1482.35 111.815 1482.19 111.739L1486.34 102.644C1485.27 102.154 1484.14 101.936 1483.14 101.871L1482.49 111.849ZM1482.19 111.739C1482.03 111.669 1481.72 111.508 1481.37 111.189C1481.03 110.873 1480.51 110.279 1480.22 109.356L1489.76 106.354C1489.05 104.097 1487.23 103.049 1486.34 102.644L1482.19 111.739ZM1480.27 109.501C1480.73 110.835 1481.52 111.922 1482.37 112.774L1489.44 105.702C1489.41 105.674 1489.58 105.83 1489.71 106.208L1480.27 109.501ZM1489.44 112.774C1490.29 111.921 1491.07 110.835 1491.54 109.501L1482.1 106.208C1482.23 105.831 1482.4 105.675 1482.37 105.702L1489.44 112.774ZM1491.59 109.356C1491.3 110.279 1490.78 110.873 1490.44 111.189C1490.09 111.509 1489.78 111.669 1489.62 111.739L1485.47 102.644C1484.58 103.048 1482.76 104.096 1482.05 106.354L1491.59 109.356ZM1489.62 111.739C1489.46 111.814 1489.35 111.84 1489.33 111.846C1489.29 111.854 1489.29 111.851 1489.32 111.849L1488.67 101.871C1487.67 101.936 1486.54 102.154 1485.47 102.644L1489.62 111.739ZM1489.34 111.848C1490.61 111.759 1491.86 111.588 1493.06 111.333L1490.98 101.551C1490.26 101.704 1489.48 101.814 1488.65 101.872L1489.34 111.848Z" fill="url(#paint51_linear_93_2)" mask="url(#path-34-inside-6_93_2)"/>
<path d="M1676.48 26.5321C1675.06 25.6704 1673.62 24.8358 1672.16 24.029C1672.46 24.1052 1672.77 24.1828 1673.08 24.2612C1674.41 24.591 1675.64 25.0644 1677.04 25.6067C1677.32 25.7165 1677.61 25.8291 1677.92 25.944C1684.42 28.5216 1690.05 32.3132 1694.36 36.9742C1696.52 39.325 1698.35 41.8571 1699.82 44.5211C1700.03 44.9353 1700.22 45.3335 1700.42 45.7216C1700.93 46.746 1701.4 47.7009 1701.84 48.6987C1702.21 49.5337 1702.4 50.3045 1702.64 51.2693C1702.75 51.7337 1702.88 52.2431 1703.04 52.8263L1703.57 54.907C1703.66 55.4854 1703.7 56.0824 1703.74 56.7761C1703.75 57.6036 1703.8 58.4106 1703.85 59.1458C1703.86 59.2637 1703.87 59.3793 1703.88 59.493C1703.89 59.596 1703.9 59.6975 1703.9 59.7976C1703.47 58.7992 1703.06 57.809 1702.69 56.8035L1702.66 56.7232L1702.62 56.6452C1702.52 56.4191 1702.43 56.1753 1702.29 55.8148C1702.17 55.4821 1702.01 55.0515 1701.8 54.6066L1701.77 54.5421L1701.74 54.4795L1700.74 52.616L1698.81 48.8724L1698.72 48.7047L1698.61 48.5518C1698.01 47.7292 1697.48 46.9004 1696.91 46.0086C1696.73 45.7352 1696.55 45.4559 1696.37 45.1691C1695.6 43.9198 1694.74 42.7222 1693.77 41.5849C1692.9 40.3663 1691.91 39.2158 1690.81 38.1441C1686.71 33.7246 1681.88 29.8179 1676.48 26.5326L1676.48 26.5321Z" fill="url(#paint52_linear_93_2)" stroke="url(#paint53_linear_93_2)" stroke-width="5"/>
</g>
<defs>
<linearGradient id="paint0_linear_93_2" x1="147" y1="3" x2="147" y2="299.344" gradientUnits="userSpaceOnUse">
<stop stop-color="#32C2B9"/>
<stop offset="1" stop-color="#00686C"/>
</linearGradient>
<linearGradient id="paint1_linear_93_2" x1="48.9352" y1="36.6142" x2="48.9352" y2="64.4385" gradientUnits="userSpaceOnUse">
<stop offset="0.28" stop-color="white"/>
<stop offset="0.93" stop-color="#E4F4FE"/>
</linearGradient>
<linearGradient id="paint2_linear_93_2" x1="48.9571" y1="36.5479" x2="48.9571" y2="64.5048" gradientUnits="userSpaceOnUse">
<stop stop-color="#32C2B9"/>
<stop offset="1" stop-color="#00686C"/>
</linearGradient>
<linearGradient id="paint3_linear_93_2" x1="79.4052" y1="64.4009" x2="79.4052" y2="81.4049" gradientUnits="userSpaceOnUse">
<stop offset="0.28" stop-color="white"/>
<stop offset="0.93" stop-color="#E4F4FE"/>
</linearGradient>
<linearGradient id="paint4_linear_93_2" x1="79.5958" y1="64.5054" x2="79.5958" y2="81.2796" gradientUnits="userSpaceOnUse">
<stop stop-color="#32C2B9"/>
<stop offset="1" stop-color="#00686C"/>
</linearGradient>
<linearGradient id="paint5_linear_93_2" x1="45.9695" y1="103.666" x2="45.9695" y2="109.208" gradientUnits="userSpaceOnUse">
<stop offset="0.28" stop-color="white"/>
<stop offset="0.93" stop-color="#E4F4FE"/>
</linearGradient>
<linearGradient id="paint6_linear_93_2" x1="45.8933" y1="103.646" x2="45.8933" y2="109.238" gradientUnits="userSpaceOnUse">
<stop stop-color="#32C2B9"/>
<stop offset="1" stop-color="#00686C"/>
</linearGradient>
<linearGradient id="paint7_linear_93_2" x1="241.991" y1="16.0927" x2="241.991" y2="70.0354" gradientUnits="userSpaceOnUse">
<stop offset="0.28" stop-color="white"/>
<stop offset="0.93" stop-color="#E4F4FE"/>
</linearGradient>
<linearGradient id="paint8_linear_93_2" x1="241.979" y1="19.7734" x2="241.979" y2="70.096" gradientUnits="userSpaceOnUse">
<stop stop-color="#32C2B9"/>
<stop offset="1" stop-color="#00686C"/>
</linearGradient>
<linearGradient id="paint9_linear_93_2" x1="435" y1="3" x2="435" y2="299.344" gradientUnits="userSpaceOnUse">
<stop stop-color="#32C2B9"/>
<stop offset="1" stop-color="#00686C"/>
</linearGradient>
<linearGradient id="paint10_linear_93_2" x1="336.935" y1="36.6142" x2="336.935" y2="64.4385" gradientUnits="userSpaceOnUse">
<stop offset="0.28" stop-color="white"/>
<stop offset="0.93" stop-color="#E4F4FE"/>
</linearGradient>
<linearGradient id="paint11_linear_93_2" x1="336.957" y1="36.5479" x2="336.957" y2="64.5048" gradientUnits="userSpaceOnUse">
<stop stop-color="#32C2B9"/>
<stop offset="1" stop-color="#00686C"/>
</linearGradient>
<linearGradient id="paint12_linear_93_2" x1="367.405" y1="64.4009" x2="367.405" y2="81.4049" gradientUnits="userSpaceOnUse">
<stop offset="0.28" stop-color="white"/>
<stop offset="0.93" stop-color="#E4F4FE"/>
</linearGradient>
<linearGradient id="paint13_linear_93_2" x1="367.596" y1="64.5054" x2="367.596" y2="81.2796" gradientUnits="userSpaceOnUse">
<stop stop-color="#32C2B9"/>
<stop offset="1" stop-color="#00686C"/>
</linearGradient>
<linearGradient id="paint14_linear_93_2" x1="333.969" y1="103.666" x2="333.969" y2="109.208" gradientUnits="userSpaceOnUse">
<stop offset="0.28" stop-color="white"/>
<stop offset="0.93" stop-color="#E4F4FE"/>
</linearGradient>
<linearGradient id="paint15_linear_93_2" x1="333.893" y1="103.646" x2="333.893" y2="109.238" gradientUnits="userSpaceOnUse">
<stop stop-color="#32C2B9"/>
<stop offset="1" stop-color="#00686C"/>
</linearGradient>
<linearGradient id="paint16_linear_93_2" x1="529.991" y1="16.0927" x2="529.991" y2="70.0354" gradientUnits="userSpaceOnUse">
<stop offset="0.28" stop-color="white"/>
<stop offset="0.93" stop-color="#E4F4FE"/>
</linearGradient>
<linearGradient id="paint17_linear_93_2" x1="529.979" y1="19.7734" x2="529.979" y2="70.096" gradientUnits="userSpaceOnUse">
<stop stop-color="#32C2B9"/>
<stop offset="1" stop-color="#00686C"/>
</linearGradient>
<linearGradient id="paint18_linear_93_2" x1="723" y1="3" x2="723" y2="299.344" gradientUnits="userSpaceOnUse">
<stop stop-color="#32C2B9"/>
<stop offset="1" stop-color="#00686C"/>
</linearGradient>
<linearGradient id="paint19_linear_93_2" x1="624.935" y1="36.6142" x2="624.935" y2="64.4385" gradientUnits="userSpaceOnUse">
<stop offset="0.28" stop-color="white"/>
<stop offset="0.93" stop-color="#E4F4FE"/>
</linearGradient>
<linearGradient id="paint20_linear_93_2" x1="624.957" y1="36.5479" x2="624.957" y2="64.5048" gradientUnits="userSpaceOnUse">
<stop stop-color="#32C2B9"/>
<stop offset="1" stop-color="#00686C"/>
</linearGradient>
<linearGradient id="paint21_linear_93_2" x1="655.405" y1="64.4009" x2="655.405" y2="81.4049" gradientUnits="userSpaceOnUse">
<stop offset="0.28" stop-color="white"/>
<stop offset="0.93" stop-color="#E4F4FE"/>
</linearGradient>
<linearGradient id="paint22_linear_93_2" x1="655.596" y1="64.5054" x2="655.596" y2="81.2796" gradientUnits="userSpaceOnUse">
<stop stop-color="#32C2B9"/>
<stop offset="1" stop-color="#00686C"/>
</linearGradient>
<linearGradient id="paint23_linear_93_2" x1="621.969" y1="103.666" x2="621.969" y2="109.208" gradientUnits="userSpaceOnUse">
<stop offset="0.28" stop-color="white"/>
<stop offset="0.93" stop-color="#E4F4FE"/>
</linearGradient>
<linearGradient id="paint24_linear_93_2" x1="621.893" y1="103.646" x2="621.893" y2="109.238" gradientUnits="userSpaceOnUse">
<stop stop-color="#32C2B9"/>
<stop offset="1" stop-color="#00686C"/>
</linearGradient>
<linearGradient id="paint25_linear_93_2" x1="817.991" y1="16.0927" x2="817.991" y2="70.0354" gradientUnits="userSpaceOnUse">
<stop offset="0.28" stop-color="white"/>
<stop offset="0.93" stop-color="#E4F4FE"/>
</linearGradient>
<linearGradient id="paint26_linear_93_2" x1="817.979" y1="19.7734" x2="817.979" y2="70.096" gradientUnits="userSpaceOnUse">
<stop stop-color="#32C2B9"/>
<stop offset="1" stop-color="#00686C"/>
</linearGradient>
<linearGradient id="paint27_linear_93_2" x1="1011" y1="3" x2="1011" y2="299.344" gradientUnits="userSpaceOnUse">
<stop stop-color="#32C2B9"/>
<stop offset="1" stop-color="#00686C"/>
</linearGradient>
<linearGradient id="paint28_linear_93_2" x1="912.935" y1="36.6142" x2="912.935" y2="64.4385" gradientUnits="userSpaceOnUse">
<stop offset="0.28" stop-color="white"/>
<stop offset="0.93" stop-color="#E4F4FE"/>
</linearGradient>
<linearGradient id="paint29_linear_93_2" x1="912.957" y1="36.5479" x2="912.957" y2="64.5048" gradientUnits="userSpaceOnUse">
<stop stop-color="#32C2B9"/>
<stop offset="1" stop-color="#00686C"/>
</linearGradient>
<linearGradient id="paint30_linear_93_2" x1="943.405" y1="64.4009" x2="943.405" y2="81.4049" gradientUnits="userSpaceOnUse">
<stop offset="0.28" stop-color="white"/>
<stop offset="0.93" stop-color="#E4F4FE"/>
</linearGradient>
<linearGradient id="paint31_linear_93_2" x1="943.596" y1="64.5054" x2="943.596" y2="81.2796" gradientUnits="userSpaceOnUse">
<stop stop-color="#32C2B9"/>
<stop offset="1" stop-color="#00686C"/>
</linearGradient>
<linearGradient id="paint32_linear_93_2" x1="909.969" y1="103.666" x2="909.969" y2="109.208" gradientUnits="userSpaceOnUse">
<stop offset="0.28" stop-color="white"/>
<stop offset="0.93" stop-color="#E4F4FE"/>
</linearGradient>
<linearGradient id="paint33_linear_93_2" x1="909.893" y1="103.646" x2="909.893" y2="109.238" gradientUnits="userSpaceOnUse">
<stop stop-color="#32C2B9"/>
<stop offset="1" stop-color="#00686C"/>
</linearGradient>
<linearGradient id="paint34_linear_93_2" x1="1105.99" y1="16.0927" x2="1105.99" y2="70.0354" gradientUnits="userSpaceOnUse">
<stop offset="0.28" stop-color="white"/>
<stop offset="0.93" stop-color="#E4F4FE"/>
</linearGradient>
<linearGradient id="paint35_linear_93_2" x1="1105.98" y1="19.7734" x2="1105.98" y2="70.096" gradientUnits="userSpaceOnUse">
<stop stop-color="#32C2B9"/>
<stop offset="1" stop-color="#00686C"/>
</linearGradient>
<linearGradient id="paint36_linear_93_2" x1="1299" y1="3" x2="1299" y2="299.344" gradientUnits="userSpaceOnUse">
<stop stop-color="#32C2B9"/>
<stop offset="1" stop-color="#00686C"/>
</linearGradient>
<linearGradient id="paint37_linear_93_2" x1="1200.94" y1="36.6142" x2="1200.94" y2="64.4385" gradientUnits="userSpaceOnUse">
<stop offset="0.28" stop-color="white"/>
<stop offset="0.93" stop-color="#E4F4FE"/>
</linearGradient>
<linearGradient id="paint38_linear_93_2" x1="1200.96" y1="36.5479" x2="1200.96" y2="64.5048" gradientUnits="userSpaceOnUse">
<stop stop-color="#32C2B9"/>
<stop offset="1" stop-color="#00686C"/>
</linearGradient>
<linearGradient id="paint39_linear_93_2" x1="1231.41" y1="64.4009" x2="1231.41" y2="81.4049" gradientUnits="userSpaceOnUse">
<stop offset="0.28" stop-color="white"/>
<stop offset="0.93" stop-color="#E4F4FE"/>
</linearGradient>
<linearGradient id="paint40_linear_93_2" x1="1231.6" y1="64.5054" x2="1231.6" y2="81.2796" gradientUnits="userSpaceOnUse">
<stop stop-color="#32C2B9"/>
<stop offset="1" stop-color="#00686C"/>
</linearGradient>
<linearGradient id="paint41_linear_93_2" x1="1197.97" y1="103.666" x2="1197.97" y2="109.208" gradientUnits="userSpaceOnUse">
<stop offset="0.28" stop-color="white"/>
<stop offset="0.93" stop-color="#E4F4FE"/>
</linearGradient>
<linearGradient id="paint42_linear_93_2" x1="1197.89" y1="103.646" x2="1197.89" y2="109.238" gradientUnits="userSpaceOnUse">
<stop stop-color="#32C2B9"/>
<stop offset="1" stop-color="#00686C"/>
</linearGradient>
<linearGradient id="paint43_linear_93_2" x1="1393.99" y1="16.0927" x2="1393.99" y2="70.0354" gradientUnits="userSpaceOnUse">
<stop offset="0.28" stop-color="white"/>
<stop offset="0.93" stop-color="#E4F4FE"/>
</linearGradient>
<linearGradient id="paint44_linear_93_2" x1="1393.98" y1="19.7734" x2="1393.98" y2="70.096" gradientUnits="userSpaceOnUse">
<stop stop-color="#32C2B9"/>
<stop offset="1" stop-color="#00686C"/>
</linearGradient>
<linearGradient id="paint45_linear_93_2" x1="1587" y1="3" x2="1587" y2="299.344" gradientUnits="userSpaceOnUse">
<stop stop-color="#32C2B9"/>
<stop offset="1" stop-color="#00686C"/>
</linearGradient>
<linearGradient id="paint46_linear_93_2" x1="1488.94" y1="36.6142" x2="1488.94" y2="64.4385" gradientUnits="userSpaceOnUse">
<stop offset="0.28" stop-color="white"/>
<stop offset="0.93" stop-color="#E4F4FE"/>
</linearGradient>
<linearGradient id="paint47_linear_93_2" x1="1488.96" y1="36.5479" x2="1488.96" y2="64.5048" gradientUnits="userSpaceOnUse">
<stop stop-color="#32C2B9"/>
<stop offset="1" stop-color="#00686C"/>
</linearGradient>
<linearGradient id="paint48_linear_93_2" x1="1519.41" y1="64.4009" x2="1519.41" y2="81.4049" gradientUnits="userSpaceOnUse">
<stop offset="0.28" stop-color="white"/>
<stop offset="0.93" stop-color="#E4F4FE"/>
</linearGradient>
<linearGradient id="paint49_linear_93_2" x1="1519.6" y1="64.5054" x2="1519.6" y2="81.2796" gradientUnits="userSpaceOnUse">
<stop stop-color="#32C2B9"/>
<stop offset="1" stop-color="#00686C"/>
</linearGradient>
<linearGradient id="paint50_linear_93_2" x1="1485.97" y1="103.666" x2="1485.97" y2="109.208" gradientUnits="userSpaceOnUse">
<stop offset="0.28" stop-color="white"/>
<stop offset="0.93" stop-color="#E4F4FE"/>
</linearGradient>
<linearGradient id="paint51_linear_93_2" x1="1485.89" y1="103.646" x2="1485.89" y2="109.238" gradientUnits="userSpaceOnUse">
<stop stop-color="#32C2B9"/>
<stop offset="1" stop-color="#00686C"/>
</linearGradient>
<linearGradient id="paint52_linear_93_2" x1="1681.99" y1="16.0927" x2="1681.99" y2="70.0354" gradientUnits="userSpaceOnUse">
<stop offset="0.28" stop-color="white"/>
<stop offset="0.93" stop-color="#E4F4FE"/>
</linearGradient>
<linearGradient id="paint53_linear_93_2" x1="1681.98" y1="19.7734" x2="1681.98" y2="70.096" gradientUnits="userSpaceOnUse">
<stop stop-color="#32C2B9"/>
<stop offset="1" stop-color="#00686C"/>
</linearGradient>
</defs>
</svg>
