<svg width="267" height="300" viewBox="0 0 267 300" fill="none" xmlns="http://www.w3.org/2000/svg">
<path d="M62.314 215.495C60.7112 201.143 57.6734 187.035 53.2597 173.424C61.0563 175.757 67.3551 176.52 72.1488 176.574C75.5026 176.612 78.0955 176.303 79.9237 175.954C80.8368 175.78 81.5565 175.596 82.0823 175.443C82.3452 175.366 82.5593 175.297 82.7249 175.24C82.8076 175.212 82.8782 175.187 82.9366 175.165C82.9421 175.163 82.9474 175.161 82.9527 175.159C82.9755 175.151 82.9963 175.143 83.0151 175.136L83.0474 175.124L83.0619 175.118L83.0687 175.115C83.072 175.114 83.0752 175.113 81.246 170.459L83.0752 175.113L99.9985 168.46L82.0531 165.525C63.5859 162.504 49.9562 150.903 42.922 143.478C76.797 135.73 99.7174 146.376 114.397 159.042L114.217 159.254C118.261 164.848 121.552 171.06 123.987 177.699C122.386 178.755 120.989 180.125 119.872 181.729C111.032 194.315 105.716 213.941 102.409 233.167C99.0656 252.606 97.6483 272.47 97.0426 286.115L97.0411 286.15L97.04 286.185C96.9882 287.889 96.5247 289.519 95.7286 290.908C94.9336 292.295 93.8519 293.365 92.6391 294.059C91.4315 294.751 90.1163 295.059 88.8191 294.991C87.541 294.923 86.2641 294.49 85.116 293.685C78.7491 288.83 74.0974 280.271 70.5305 267.191C66.9708 254.137 64.7023 237.417 62.483 217.139C62.4823 217.133 62.4817 217.128 62.4811 217.122L62.3188 215.54L62.3165 215.517L62.314 215.495Z" stroke="url(#paint0_linear_50_2)" stroke-width="10"/>
<path d="M187.474 173.692C185.796 178.402 185.799 178.403 185.802 178.404L185.808 178.407L185.822 178.412L185.853 178.422C185.876 178.43 185.902 178.439 185.93 178.449C185.988 178.468 186.059 178.491 186.143 178.517C186.311 178.569 186.531 178.633 186.802 178.705C187.346 178.849 188.096 179.023 189.053 179.188C190.968 179.519 193.702 179.816 197.253 179.78C202.442 179.726 209.335 178.961 217.929 176.58C213.198 189.828 209.942 203.565 208.229 217.543L208.226 217.566L208.223 217.589L208.049 219.128C208.048 219.135 208.048 219.141 208.047 219.148C205.659 238.921 203.222 255.165 199.404 267.838C195.594 280.485 190.621 288.822 183.703 293.626C182.4 294.448 180.902 294.919 179.356 294.99C177.785 295.063 176.224 294.72 174.832 293.998C173.441 293.276 172.269 292.201 171.435 290.886C170.6 289.571 170.132 288.062 170.076 286.512L170.075 286.482L170.073 286.452C169.443 273.441 167.973 254.646 164.557 236.083C161.233 218.017 155.952 199.487 147.336 186.836L147.226 186.622C146.551 185.301 145.862 183.975 145.135 182.696L145.103 182.64L145.083 182.607C145.084 182.608 145.083 182.607 145.08 182.601C145.078 182.598 145.075 182.592 145.071 182.585L145.035 182.52L145.017 182.487C145.005 182.465 144.991 182.439 144.977 182.413C144.915 182.301 144.806 182.105 144.659 181.874C136.064 166.574 127.562 159.571 123.311 156.74C104.798 141.181 74.5695 127.851 30.0543 138.669C29.2116 137.296 28.328 135.911 27.388 134.532C16.5468 117.62 7.52508 96.2923 5.4494 75.5443C3.38296 54.8886 8.19669 35.2116 24.4909 20.5219L24.4922 20.5206C40.0142 6.51682 57.7127 3.51999 74.4613 5.58932C91.3364 7.6743 107.054 14.9044 117.893 21.1209C118.96 21.7597 120.063 22.3321 121.195 22.8358C117.899 28.3766 115.955 33.0651 114.811 36.689C114.055 39.0847 113.651 41.0042 113.436 42.3844C113.329 43.0741 113.269 43.628 113.236 44.0382C113.219 44.2433 113.209 44.4123 113.202 44.5444C113.201 44.5664 113.201 44.5874 113.2 44.6073C113.198 44.6472 113.197 44.6829 113.196 44.7145L113.194 44.7785L113.194 44.8052L113.194 44.8172L113.194 44.8229C113.194 44.8256 113.194 44.8283 118.193 44.8866L113.194 44.8283L122.543 47.3516C128.032 37.6663 135.627 29.3247 144.773 22.9369C145.874 22.4736 146.946 21.9461 147.984 21.3571L147.992 21.3524L148 21.3478C158.88 15.1224 174.617 7.87662 191.503 5.78905C208.238 3.71998 225.914 6.71599 241.425 20.7193L241.434 20.7268C257.784 35.4214 262.642 55.1006 260.6 75.7497C258.546 96.5166 249.509 117.865 238.611 134.781C238.61 134.781 238.61 134.782 238.61 134.782L242.813 137.49C241.297 139.842 239.825 142.238 238.353 144.635L187.474 173.692ZM187.474 173.692L185.796 178.402L186.74 168.746C213.467 164.784 230.771 145.907 234.277 141.719L187.474 173.692Z" stroke="url(#paint1_linear_50_2)" stroke-width="10"/>
<path d="M38.8029 48.0263L38.828 48.1121L38.8072 48.1886L38.7838 48.1026L38.8029 48.0263Z" fill="url(#paint2_linear_50_2)" stroke="url(#paint3_linear_50_2)" stroke-width="10"/>
<mask id="path-4-inside-1_50_2" fill="white">
<path d="M84.9059 70.7651C82.6644 70.15 80.297 69.7163 77.8657 69.4751V69.4751C76.6232 69.3524 75.476 68.9987 74.5856 68.4638C73.6952 67.9289 73.1065 67.2398 72.9022 66.4933V66.4933C72.4976 65.0332 71.7757 63.6112 70.755 62.2639C69.7343 63.6112 69.0125 65.0332 68.6078 66.4933V66.4933C68.4019 67.2372 67.8117 67.9233 66.921 68.4546C66.0303 68.9859 64.8839 69.3355 63.6443 69.4539V69.4539C61.2093 69.6857 58.8399 70.1198 56.6041 70.7439C58.8456 71.3589 61.213 71.7927 63.6443 72.0339V72.0339C64.8868 72.1566 66.0341 72.5103 66.9244 73.0452C67.8148 73.58 68.4036 74.2692 68.6078 75.0156V75.0156C69.0093 76.4762 69.7313 77.8984 70.755 79.245C71.7938 77.9019 72.5165 76.4784 72.9022 75.0156C73.0993 74.2709 73.6812 73.5823 74.5656 73.0472C75.45 72.5121 76.5923 72.1576 77.8305 72.0339V72.0339C80.2722 71.8013 82.6515 71.3746 84.9059 70.7651V70.7651Z"/>
</mask>
<path d="M84.9059 70.7651C82.6644 70.15 80.297 69.7163 77.8657 69.4751V69.4751C76.6232 69.3524 75.476 68.9987 74.5856 68.4638C73.6952 67.9289 73.1065 67.2398 72.9022 66.4933V66.4933C72.4976 65.0332 71.7757 63.6112 70.755 62.2639C69.7343 63.6112 69.0125 65.0332 68.6078 66.4933V66.4933C68.4019 67.2372 67.8117 67.9233 66.921 68.4546C66.0303 68.9859 64.8839 69.3355 63.6443 69.4539V69.4539C61.2093 69.6857 58.8399 70.1198 56.6041 70.7439C58.8456 71.3589 61.213 71.7927 63.6443 72.0339V72.0339C64.8868 72.1566 66.0341 72.5103 66.9244 73.0452C67.8148 73.58 68.4036 74.2692 68.6078 75.0156V75.0156C69.0093 76.4762 69.7313 77.8984 70.755 79.245C71.7938 77.9019 72.5165 76.4784 72.9022 75.0156C73.0993 74.2709 73.6812 73.5823 74.5656 73.0472C75.45 72.5121 76.5923 72.1576 77.8305 72.0339V72.0339C80.2722 71.8013 82.6515 71.3746 84.9059 70.7651V70.7651Z" fill="url(#paint4_linear_50_2)"/>
<path d="M70.755 62.2639L78.7259 56.2254L70.755 45.7037L62.7841 56.2254L70.755 62.2639ZM56.6041 70.7439L53.9155 61.1121L19.1124 70.8267L53.9581 80.3875L56.6041 70.7439ZM70.755 79.245L62.7943 85.2971L70.6868 95.6786L78.6652 85.363L70.755 79.245ZM72.9022 75.0156L63.2351 72.4569L63.2328 72.4657L72.9022 75.0156ZM87.5519 61.1215C84.7402 60.35 81.8163 59.8179 78.8528 59.5239L76.8786 79.4262C78.7777 79.6146 80.5886 79.9501 82.26 80.4087L87.5519 61.1215ZM78.8484 59.5235C78.8545 59.5241 78.9174 59.5301 79.0398 59.5679C79.1557 59.6036 79.4024 59.6917 79.7353 59.8917L69.4359 77.0359C71.8267 78.4722 74.4601 79.1874 76.883 79.4267L78.8484 59.5235ZM79.7353 59.8917C80.2782 60.2179 81.8671 61.3667 82.5477 63.8542L63.2568 69.1325C64.3458 73.1128 67.1122 75.64 69.4359 77.0359L79.7353 59.8917ZM82.539 63.8226C81.76 61.0119 80.4219 58.464 78.7259 56.2254L62.7841 68.3025C63.1295 68.7585 63.2351 69.0544 63.2655 69.1641L82.539 63.8226ZM62.7841 56.2254C61.0881 58.464 59.75 61.0119 58.971 63.8226L78.2446 69.1641C78.2749 69.0544 78.3805 68.7585 78.7259 68.3025L62.7841 56.2254ZM58.9703 63.8252C59.6599 61.3344 61.2561 60.1898 61.7982 59.8664L72.0438 77.0428C74.3673 75.6569 77.1438 73.14 78.2453 69.1615L58.9703 63.8252ZM61.7982 59.8664C62.1318 59.6674 62.3792 59.5798 62.4964 59.544C62.62 59.5064 62.6847 59.5001 62.6934 59.4993L64.5952 79.4086C67.0177 79.1772 69.651 78.4701 72.0438 77.0428L61.7982 59.8664ZM62.6969 59.4989C59.7045 59.7837 56.7506 60.3208 53.9155 61.1121L59.2926 80.3757C60.9291 79.9189 62.7142 79.5877 64.5917 79.409L62.6969 59.4989ZM53.9581 80.3875C56.7698 81.159 59.6937 81.6911 62.6572 81.985L64.6314 62.0827C62.7323 61.8943 60.9214 61.5589 59.25 61.1003L53.9581 80.3875ZM62.6616 81.9855C62.6556 81.9849 62.5927 81.9788 62.4703 81.9411C62.3543 81.9054 62.1077 81.8172 61.7747 81.6172L72.0741 64.4731C69.6833 63.0367 67.0498 62.3215 64.627 62.0823L62.6616 81.9855ZM61.7747 81.6172C61.2318 81.2911 59.6429 80.1422 58.9623 77.6548L78.2533 72.3765C77.1642 68.3962 74.3978 65.869 72.0741 64.4731L61.7747 81.6172ZM58.9654 77.6659C59.7424 80.4929 61.0879 83.0525 62.7943 85.2971L78.7157 73.1929C78.3746 72.7444 78.2761 72.4596 78.2502 72.3653L58.9654 77.6659ZM78.6652 85.363C80.4234 83.0897 81.805 80.4729 82.5717 77.5655L63.2328 72.4657C63.228 72.484 63.1643 72.714 62.8448 73.1271L78.6652 85.363ZM82.5693 77.5744C81.9026 80.0934 80.2986 81.2664 79.7422 81.603L69.389 64.4913C67.0638 65.8981 64.2961 68.4484 63.2351 72.4569L82.5693 77.5744ZM79.7422 81.603C79.4031 81.8082 79.1502 81.8994 79.0294 81.9369C78.9021 81.9764 78.8346 81.9834 78.8247 81.9843L76.8363 62.0834C74.4153 62.3253 71.7798 63.0448 69.389 64.4913L79.7422 81.603ZM78.7789 81.9888C81.7539 81.7054 84.6906 81.1823 87.516 80.4184L82.2959 61.1117C80.6124 61.5669 78.7904 61.8972 76.8821 62.079L78.7789 81.9888Z" fill="url(#paint5_linear_50_2)" mask="url(#path-4-inside-1_50_2)"/>
<mask id="path-6-inside-2_50_2" fill="white">
<path d="M45.2828 104.717C44.3922 104.515 43.4524 104.373 42.4877 104.294V104.294C41.9765 104.262 41.501 104.146 41.1367 103.964C40.7725 103.781 40.5402 103.543 40.4769 103.287C40.3164 102.804 40.0326 102.334 39.6324 101.887C39.2233 102.332 38.939 102.803 38.7878 103.287V103.287C38.7212 103.542 38.488 103.78 38.1244 103.962C37.7607 104.144 37.287 104.261 36.777 104.294V104.294C35.8065 104.374 34.8606 104.517 33.962 104.717C34.8571 104.922 35.8043 105.065 36.777 105.14V105.14C37.2844 105.177 37.7546 105.295 38.1171 105.476C38.4796 105.658 38.7149 105.893 38.7878 106.147V106.147C38.9417 106.631 39.2259 107.102 39.6324 107.547C40.039 107.102 40.323 106.631 40.4769 106.147V106.147C40.5499 105.893 40.7853 105.658 41.1478 105.476C41.5103 105.295 41.9803 105.177 42.4877 105.14V105.14C43.4545 105.066 44.3956 104.923 45.2828 104.717V104.717Z"/>
</mask>
<path d="M45.2828 104.717C44.3922 104.515 43.4524 104.373 42.4877 104.294V104.294C41.9765 104.262 41.501 104.146 41.1367 103.964C40.7725 103.781 40.5402 103.543 40.4769 103.287C40.3164 102.804 40.0326 102.334 39.6324 101.887C39.2233 102.332 38.939 102.803 38.7878 103.287V103.287C38.7212 103.542 38.488 103.78 38.1244 103.962C37.7607 104.144 37.287 104.261 36.777 104.294V104.294C35.8065 104.374 34.8606 104.517 33.962 104.717C34.8571 104.922 35.8043 105.065 36.777 105.14V105.14C37.2844 105.177 37.7546 105.295 38.1171 105.476C38.4796 105.658 38.7149 105.893 38.7878 106.147V106.147C38.9417 106.631 39.2259 107.102 39.6324 107.547C40.039 107.102 40.323 106.631 40.4769 106.147V106.147C40.5499 105.893 40.7853 105.658 41.1478 105.476C41.5103 105.295 41.9803 105.177 42.4877 105.14V105.14C43.4545 105.066 44.3956 104.923 45.2828 104.717V104.717Z" fill="url(#paint6_linear_50_2)"/>
<path d="M40.4769 103.287L50.1848 100.888L50.0904 100.505L49.9661 100.132L40.4769 103.287ZM39.6324 101.887L47.0803 95.214L39.7288 87.0087L32.2716 95.1181L39.6324 101.887ZM33.962 104.717L31.784 94.9572L31.7287 114.465L33.962 104.717ZM39.6324 107.547L32.2464 114.289L39.6324 122.381L47.0185 114.289L39.6324 107.547ZM47.4929 94.9644C46.1167 94.6526 44.7097 94.4426 43.3036 94.3275L41.6718 114.261C42.1952 114.304 42.6677 114.378 43.0727 114.47L47.4929 94.9644ZM43.1066 94.3133C43.4039 94.3317 43.7476 94.3775 44.1332 94.4718C44.5078 94.5635 45.022 94.7254 45.6152 95.0226L36.6582 112.905C38.4926 113.824 40.3477 114.181 41.8688 114.275L43.1066 94.3133ZM45.6152 95.0226C46.1915 95.3112 47.0205 95.8171 47.8539 96.6719C48.693 97.5325 49.6997 98.9249 50.1848 100.888L30.7691 105.686C31.8435 110.034 35.1048 112.127 36.6582 112.905L45.6152 95.0226ZM49.9661 100.132C49.3033 98.1384 48.2341 96.5017 47.0803 95.214L32.1846 108.56C31.8311 108.165 31.3295 107.47 30.9878 106.442L49.9661 100.132ZM32.2716 95.1181C31.0542 96.4419 29.9106 98.1674 29.2428 100.305L48.3328 106.269C47.9674 107.439 47.3924 108.222 46.9933 108.656L32.2716 95.1181ZM29.1114 100.764C29.6123 98.8429 30.6087 97.4832 31.4365 96.6412C32.2597 95.8039 33.0759 95.3062 33.6458 95.0207L42.6029 112.903C44.1532 112.126 47.3537 110.069 48.4643 105.81L29.1114 100.764ZM33.6458 95.0207C34.232 94.7271 34.74 94.5662 35.1106 94.4748C35.492 94.3807 35.8314 94.3346 36.1242 94.3155L37.4299 114.273C38.9416 114.174 40.7822 113.815 42.6029 112.903L33.6458 95.0207ZM35.952 94.3282C34.5523 94.4441 33.153 94.6517 31.784 94.9572L36.14 114.477C36.5681 114.382 37.0607 114.305 37.602 114.26L35.952 94.3282ZM31.7287 114.465C33.1326 114.786 34.5688 114.999 36.0023 115.11L37.5518 95.1702C37.0398 95.1304 36.5817 95.0583 36.1953 94.9697L31.7287 114.465ZM36.0585 115.114C35.774 115.094 35.4427 115.047 35.0695 114.954C34.7065 114.863 34.2107 114.704 33.6386 114.417L42.5956 96.5351C40.802 95.6366 38.9899 95.2737 37.4956 95.166L36.0585 115.114ZM33.6386 114.417C33.0815 114.138 32.2903 113.657 31.4872 112.853C30.6815 112.047 29.7049 110.748 29.1762 108.907L48.3995 103.388C47.2244 99.2953 44.1367 97.307 42.5956 96.5351L33.6386 114.417ZM29.2587 109.18C29.9256 111.276 31.0476 112.975 32.2464 114.289L47.0185 100.806C47.4042 101.229 47.9578 101.986 48.3169 103.115L29.2587 109.18ZM47.0185 114.289C48.2182 112.974 49.3395 111.274 50.006 109.18L30.9478 103.115C31.3066 101.988 31.8597 101.23 32.2464 100.806L47.0185 114.289ZM50.0886 108.907C49.5595 110.75 48.582 112.048 47.7766 112.854C46.9738 113.657 46.1829 114.138 45.6263 114.417L36.6693 96.5351C35.1303 97.3059 32.0408 99.2938 30.8653 103.388L50.0886 108.907ZM45.6263 114.417C45.0545 114.704 44.5589 114.862 44.1956 114.953C43.8223 115.047 43.4909 115.094 43.2063 115.114L41.7692 95.166C40.2744 95.2737 38.4626 95.6368 36.6693 96.5351L45.6263 114.417ZM43.2541 115.111C44.6933 115 46.1369 114.785 47.5475 114.457L43.018 94.977C42.6542 95.0616 42.2158 95.1316 41.7214 95.1696L43.2541 115.111Z" fill="url(#paint7_linear_50_2)" mask="url(#path-6-inside-2_50_2)"/>
<mask id="path-8-inside-3_50_2" fill="white">
<path d="M198.113 17.0413C201.489 16.8505 204.878 17.1126 208.168 17.8191C209.848 18.1261 211.437 18.6174 213.094 19.0676C214.751 19.5179 216.272 20.2138 217.838 20.8688C224.147 23.6061 229.647 27.6535 233.885 32.6787C236.019 35.2176 237.831 37.9637 239.288 40.8659C239.946 42.3396 240.627 43.7723 241.217 45.246C241.807 46.7197 242.057 48.2752 242.443 49.7899L242.965 52.0413C243.078 52.8191 243.123 53.5969 243.169 54.3542C243.169 55.8893 243.351 57.4244 243.396 58.939C243.233 61.9617 242.793 64.9671 242.079 67.9244C240.876 65.0179 240.264 62.1934 239.265 59.4507C238.72 58.0998 238.198 56.7489 237.721 55.3571C237.449 54.7021 237.267 54.0062 236.972 53.3103L236.042 51.4068L234.248 47.5998C233.477 46.4331 232.796 45.2255 232.092 44.0384C231.431 42.8495 230.673 41.7069 229.822 40.6203C229.075 39.4635 228.216 38.3677 227.257 37.3454C223.615 33.0329 219.312 29.2083 214.478 25.9858C209.337 22.5612 203.859 19.5673 198.113 17.0413V17.0413Z"/>
</mask>
<path d="M198.113 17.0413C201.489 16.8505 204.878 17.1126 208.168 17.8191C209.848 18.1261 211.437 18.6174 213.094 19.0676C214.751 19.5179 216.272 20.2138 217.838 20.8688C224.147 23.6061 229.647 27.6535 233.885 32.6787C236.019 35.2176 237.831 37.9637 239.288 40.8659C239.946 42.3396 240.627 43.7723 241.217 45.246C241.807 46.7197 242.057 48.2752 242.443 49.7899L242.965 52.0413C243.078 52.8191 243.123 53.5969 243.169 54.3542C243.169 55.8893 243.351 57.4244 243.396 58.939C243.233 61.9617 242.793 64.9671 242.079 67.9244C240.876 65.0179 240.264 62.1934 239.265 59.4507C238.72 58.0998 238.198 56.7489 237.721 55.3571C237.449 54.7021 237.267 54.0062 236.972 53.3103L236.042 51.4068L234.248 47.5998C233.477 46.4331 232.796 45.2255 232.092 44.0384C231.431 42.8495 230.673 41.7069 229.822 40.6203C229.075 39.4635 228.216 38.3677 227.257 37.3454C223.615 33.0329 219.312 29.2083 214.478 25.9858C209.337 22.5612 203.859 19.5673 198.113 17.0413V17.0413Z" fill="url(#paint8_linear_50_2)"/>
<path d="M208.168 17.8191L206.069 27.5963L206.219 27.6285L206.37 27.6561L208.168 17.8191ZM217.838 20.8688L221.818 11.695L221.757 11.6686L221.696 11.6431L217.838 20.8688ZM233.885 32.6787L241.541 26.2451L241.535 26.2382L241.529 26.2313L233.885 32.6787ZM239.288 40.8659L248.418 36.7875L248.326 36.5817L248.225 36.3802L239.288 40.8659ZM242.443 49.7899L252.184 47.5306L252.16 47.4256L252.133 47.3211L242.443 49.7899ZM242.965 52.0413L252.86 50.5974L252.8 50.1866L252.706 49.7821L242.965 52.0413ZM243.169 54.3542H253.169V54.0547L253.151 53.7558L243.169 54.3542ZM243.396 58.939L253.381 59.4774L253.404 59.0586L253.391 58.6394L243.396 58.939ZM242.079 67.9244L232.84 71.7488L244.595 100.149L251.801 70.2687L242.079 67.9244ZM239.265 59.4507L248.661 56.0291L248.603 55.8688L248.539 55.7107L239.265 59.4507ZM237.721 55.3571L247.182 52.1171L247.078 51.8135L246.955 51.5173L237.721 55.3571ZM236.972 53.3103L246.179 49.4066L246.074 49.1595L245.956 48.9184L236.972 53.3103ZM236.042 51.4068L226.995 55.6681L227.026 55.7337L227.058 55.7988L236.042 51.4068ZM234.248 47.5998L243.295 43.3385L242.987 42.6851L242.589 42.0827L234.248 47.5998ZM232.092 44.0384L223.351 48.8965L223.419 49.0179L223.49 49.1373L232.092 44.0384ZM229.822 40.6203L221.424 46.0489L221.669 46.4276L221.947 46.7828L229.822 40.6203ZM227.257 37.3454L219.618 43.7981L219.786 43.997L219.964 44.1868L227.257 37.3454ZM214.478 25.9858L220.025 17.6651L220.022 17.6628L214.478 25.9858ZM198.677 27.0254C201.164 26.8848 203.657 27.0785 206.069 27.5963L210.267 8.04188C206.098 7.1468 201.813 6.81623 197.549 7.05725L198.677 27.0254ZM206.37 27.6561C207.498 27.8623 208.38 28.1492 210.471 28.7177L215.716 9.41763C214.494 9.08548 212.198 8.38998 209.966 7.98208L206.37 27.6561ZM210.471 28.7177C211.314 28.9466 211.995 29.2647 213.98 30.0946L221.696 11.6431C220.548 11.163 218.188 10.0893 215.716 9.41763L210.471 28.7177ZM213.858 30.0426C218.819 32.1951 223.044 35.3349 226.241 39.1262L241.529 26.2313C236.25 19.972 229.475 15.0172 221.818 11.695L213.858 30.0426ZM226.23 39.1124C227.872 41.0669 229.251 43.1613 230.35 45.3515L248.225 36.3802C246.411 32.7662 244.166 29.3683 241.541 26.2451L226.23 39.1124ZM230.157 44.9442C230.944 46.7056 231.44 47.7312 231.934 48.9636L250.5 41.5284C249.813 39.8134 248.948 37.9735 248.418 36.7875L230.157 44.9442ZM231.934 48.9636C232.203 49.6365 232.066 49.5654 232.752 52.2586L252.133 47.3211C252.047 46.985 251.411 43.8028 250.5 41.5284L231.934 48.9636ZM232.701 52.0491L233.223 54.3005L252.706 49.7821L252.184 47.5306L232.701 52.0491ZM233.069 53.4852C233.111 53.7683 233.136 54.1129 233.187 54.9526L253.151 53.7558C253.11 53.0808 253.046 51.8699 252.86 50.5974L233.069 53.4852ZM233.169 54.3542C233.169 55.4828 233.235 56.5385 233.288 57.3207C233.346 58.1993 233.385 58.7159 233.4 59.2386L253.391 58.6394C253.362 57.6475 253.287 56.6392 253.243 55.9879C253.193 55.24 253.169 54.7607 253.169 54.3542H233.169ZM233.41 58.4005C233.28 60.8114 232.929 63.2124 232.358 65.58L251.801 70.2687C252.656 66.7219 253.185 63.112 253.381 59.4774L233.41 58.4005ZM251.319 64.0999C250.916 63.125 250.578 62.0852 250.165 60.7232C249.789 59.4852 249.281 57.7307 248.661 56.0291L229.868 62.8723C230.248 63.9133 230.545 64.9425 231.026 66.529C231.47 67.9916 232.04 69.8173 232.84 71.7488L251.319 64.0999ZM248.539 55.7107C248.028 54.4427 247.578 53.2737 247.182 52.1171L228.261 58.5971C228.818 60.2241 229.412 61.7569 229.991 63.1906L248.539 55.7107ZM246.955 51.5173C246.972 51.5599 246.97 51.562 246.825 51.1356C246.717 50.8166 246.49 50.1395 246.179 49.4066L227.766 57.2141C227.75 57.177 227.761 57.1959 227.886 57.5625C227.974 57.8218 228.198 58.4994 228.488 59.1969L246.955 51.5173ZM245.956 48.9184L245.026 47.0149L227.058 55.7988L227.988 57.7023L245.956 48.9184ZM245.088 47.1455L243.295 43.3385L225.202 51.8611L226.995 55.6681L245.088 47.1455ZM242.589 42.0827C241.998 41.1899 241.544 40.3726 240.695 38.9395L223.49 49.1373C224.048 50.0784 224.955 51.6763 225.908 53.1169L242.589 42.0827ZM240.833 39.1803C239.914 37.5281 238.865 35.95 237.698 34.4578L221.947 46.7828C222.48 47.4638 222.948 48.1709 223.351 48.8965L240.833 39.1803ZM238.221 35.1916C237.142 33.523 235.912 31.9555 234.551 30.504L219.964 44.1868C220.52 44.78 221.007 45.404 221.424 46.0489L238.221 35.1916ZM234.897 30.8928C230.631 25.8416 225.618 21.3936 220.025 17.6651L208.932 34.3064C213.007 37.023 216.599 40.2242 219.618 43.7981L234.897 30.8928ZM220.022 17.6628C214.391 13.9126 208.404 10.6419 202.137 7.8869L194.088 26.1957C199.313 28.4927 204.282 31.2098 208.935 34.3087L220.022 17.6628Z" fill="url(#paint9_linear_50_2)" mask="url(#path-8-inside-3_50_2)"/>
<defs>
<linearGradient id="paint0_linear_50_2" x1="82.0752" y1="135.849" x2="82.0752" y2="300" gradientUnits="userSpaceOnUse">
<stop stop-color="#32C2B9"/>
<stop offset="1" stop-color="#00686C"/>
</linearGradient>
<linearGradient id="paint1_linear_50_2" x1="133.019" y1="0" x2="133.019" y2="300" gradientUnits="userSpaceOnUse">
<stop stop-color="#32C2B9"/>
<stop offset="1" stop-color="#00686C"/>
</linearGradient>
<linearGradient id="paint2_linear_50_2" x1="42.4323" y1="34.029" x2="42.4323" y2="62.1967" gradientUnits="userSpaceOnUse">
<stop offset="0.28" stop-color="white"/>
<stop offset="0.93" stop-color="#E4F4FE"/>
</linearGradient>
<linearGradient id="paint3_linear_50_2" x1="42.4526" y1="33.9619" x2="42.4526" y2="62.2638" gradientUnits="userSpaceOnUse">
<stop stop-color="#32C2B9"/>
<stop offset="1" stop-color="#00686C"/>
</linearGradient>
<linearGradient id="paint4_linear_50_2" x1="70.579" y1="62.1582" x2="70.579" y2="79.3719" gradientUnits="userSpaceOnUse">
<stop offset="0.28" stop-color="white"/>
<stop offset="0.93" stop-color="#E4F4FE"/>
</linearGradient>
<linearGradient id="paint5_linear_50_2" x1="70.755" y1="62.2639" x2="70.755" y2="79.245" gradientUnits="userSpaceOnUse">
<stop stop-color="#32C2B9"/>
<stop offset="1" stop-color="#00686C"/>
</linearGradient>
<linearGradient id="paint6_linear_50_2" x1="39.6928" y1="101.907" x2="39.6928" y2="107.517" gradientUnits="userSpaceOnUse">
<stop offset="0.28" stop-color="white"/>
<stop offset="0.93" stop-color="#E4F4FE"/>
</linearGradient>
<linearGradient id="paint7_linear_50_2" x1="39.6224" y1="101.887" x2="39.6224" y2="107.547" gradientUnits="userSpaceOnUse">
<stop stop-color="#32C2B9"/>
<stop offset="1" stop-color="#00686C"/>
</linearGradient>
<linearGradient id="paint8_linear_50_2" x1="220.766" y1="13.2548" x2="220.766" y2="67.863" gradientUnits="userSpaceOnUse">
<stop offset="0.28" stop-color="white"/>
<stop offset="0.93" stop-color="#E4F4FE"/>
</linearGradient>
<linearGradient id="paint9_linear_50_2" x1="220.754" y1="16.981" x2="220.754" y2="67.9244" gradientUnits="userSpaceOnUse">
<stop stop-color="#32C2B9"/>
<stop offset="1" stop-color="#00686C"/>
</linearGradient>
</defs>
</svg>
