<svg width="432" height="82" viewBox="0 0 432 82" fill="none" xmlns="http://www.w3.org/2000/svg">
<path d="M26.6192 77.4575L26.6191 77.4575L26.6187 77.4715C26.6029 77.9891 26.4621 78.4873 26.2171 78.9148C25.9722 79.342 25.6353 79.678 25.2499 79.8987C24.8654 80.1188 24.4423 80.219 24.0218 80.197C23.6054 80.1751 23.1941 80.0333 22.8293 79.7761C21.0103 78.3918 19.7228 75.982 18.7494 72.4126C17.7776 68.8491 17.1613 64.2976 16.5607 58.8095C16.5606 58.8084 16.5604 58.8073 16.5603 58.8062L16.5161 58.3755L16.5162 58.3755L16.5152 58.3666C16.0583 54.2754 15.168 50.2583 13.8635 46.3965C16.2499 47.1808 18.14 47.4237 19.5323 47.4395C20.4161 47.4495 21.0944 47.3679 21.5665 47.2778C21.8023 47.2328 21.9862 47.1858 22.1179 47.1474C22.1838 47.1281 22.2366 47.1111 22.2764 47.0974C22.2963 47.0906 22.3129 47.0847 22.3262 47.0798L22.3438 47.0732L22.3507 47.0706L22.3537 47.0694L22.3551 47.0689C22.3558 47.0686 22.3564 47.0683 21.9906 46.1377L22.3564 47.0683L25.7411 45.7378L22.152 45.1508C16.6635 44.253 12.7337 40.6221 10.9493 38.6309C20.6121 36.2305 27.126 39.2439 31.256 42.8332L31.201 42.8977C32.3704 44.5154 33.3107 46.3198 33.9892 48.2493C33.4951 48.5237 33.0661 48.9146 32.7349 49.3904C30.3905 52.728 28.961 57.9721 28.0669 63.1704C27.1655 68.4114 26.7828 73.7714 26.6192 77.4575Z" stroke="url(#paint0_linear_34_2)" stroke-width="2"/>
<path d="M50.7428 47.0127C50.4072 47.9547 50.4079 47.9549 50.4085 47.9551L50.4098 47.9556L50.4127 47.9566L50.4195 47.959L50.4369 47.9649C50.4503 47.9693 50.4672 47.9748 50.4875 47.9811C50.5282 47.9938 50.5829 48.0098 50.6516 48.028C50.7889 48.0643 50.9818 48.1091 51.2305 48.152C51.728 48.238 52.4467 48.3167 53.3861 48.307C54.8883 48.2916 56.9455 48.0506 59.5566 47.2613C58.1556 51.0231 57.2001 54.9373 56.7113 58.9247L56.7113 58.9247L56.7102 58.9338L56.6628 59.353C56.6626 59.3542 56.6625 59.3553 56.6624 59.3565C56.0161 64.7082 55.3538 69.1336 54.3103 72.5969C53.2683 76.0553 51.8891 78.4032 49.9175 79.7695C49.5114 80.0272 49.0441 80.1748 48.5621 80.1971C48.0749 80.2196 47.5906 80.1132 47.1586 79.889C46.7266 79.6649 46.3627 79.3312 46.1033 78.9225C45.844 78.5138 45.6983 78.0444 45.6808 77.5621L45.6802 77.5501C45.5101 74.0366 45.1131 68.9668 44.1925 63.9638C43.2928 59.0739 41.87 54.1109 39.5744 50.751L39.5346 50.673C39.3523 50.3163 39.1688 49.9632 38.976 49.6243L38.9697 49.6133L38.9632 49.6024C38.9638 49.6035 38.9622 49.6009 38.9564 49.5903L38.9459 49.5711L38.9308 49.5435C38.9144 49.5136 38.8873 49.465 38.8513 49.4095C36.5397 45.2909 34.2637 43.4366 33.1639 42.7075C28.1993 38.5285 20.0487 34.924 7.96767 37.9382C7.70059 37.4965 7.42002 37.0508 7.11823 36.6081C4.16188 31.9977 1.6924 26.1702 1.12339 20.4825C0.556225 14.8132 1.87638 9.36337 6.39227 5.29215L6.39254 5.29191C10.687 1.41748 15.5878 0.592632 20.1975 1.16218C24.8324 1.73484 29.1348 3.71762 32.0885 5.41188C32.4814 5.64738 32.8931 5.84814 33.319 6.01235C32.3101 7.6429 31.7372 9.00826 31.4125 10.0369C31.2132 10.668 31.108 11.1701 31.0526 11.5264C31.0249 11.7044 31.0096 11.8458 31.0012 11.9485C30.997 11.9998 30.9946 12.0414 30.9931 12.073C30.9928 12.0784 30.9926 12.0834 30.9924 12.0882C30.9921 12.0975 30.9918 12.1058 30.9916 12.1129L30.9912 12.1272L30.9911 12.1329L30.9911 12.1354L30.9911 12.1366C30.9911 12.1371 30.9911 12.1377 31.991 12.1493L30.9911 12.1377L32.861 12.6423C34.3787 9.96385 36.4816 7.65869 39.0141 5.89684C39.3112 5.77341 39.6003 5.63198 39.8801 5.47332L39.8833 5.47145C42.8474 3.77541 47.1537 1.78943 51.79 1.21624C56.3964 0.646748 61.2911 1.47143 65.5826 5.34576L65.5842 5.34727C70.1153 9.41945 71.4478 14.8697 70.8873 20.5377C70.3245 26.2292 67.8518 32.0608 64.8809 36.6721C64.4763 37.2997 64.0842 37.9373 63.6986 38.5653C62.7683 39.6821 58.0012 44.9258 50.5962 46.0235L50.4072 47.9547L50.7428 47.0127Z" stroke="url(#paint1_linear_34_2)" stroke-width="2"/>
<path d="M11.4899 13.2367C11.4301 13.1681 11.3649 13.1021 11.2944 13.0404C11.3693 12.9738 11.438 12.9024 11.5007 12.8281C11.562 12.8972 11.6288 12.9635 11.7011 13.0252C11.6245 13.0913 11.5541 13.1625 11.4899 13.2367ZM11.9294 12.0823L12.1092 11.9737L11.9294 12.0823ZM11.0604 13.9609L10.8687 14.0767L11.0604 13.9609Z" fill="url(#paint2_linear_34_2)" stroke="url(#paint3_linear_34_2)" stroke-width="2"/>
<path d="M19.1497 19.3411C19.0886 19.2721 19.0234 19.2084 18.9557 19.1497C19.0236 19.0911 19.0889 19.0273 19.1502 18.9584C19.211 19.0272 19.2758 19.0908 19.3433 19.1495C19.2757 19.2082 19.2107 19.272 19.1497 19.3411ZM20.0789 18.7122L20.1878 18.5309L20.0789 18.7122Z" fill="url(#paint4_linear_34_2)" stroke="url(#paint5_linear_34_2)" stroke-width="2"/>
<mask id="path-5-inside-1_34_2" fill="white">
<path d="M12.2565 28.3434C12.0155 28.2888 11.7611 28.2503 11.5 28.2289C11.3616 28.2204 11.2329 28.1889 11.1343 28.1395C11.0357 28.0901 10.9729 28.0256 10.9558 27.9563C10.9123 27.8256 10.8355 27.6983 10.7272 27.5774C10.6164 27.6978 10.5395 27.8253 10.4986 27.9563C10.4805 28.0255 10.4174 28.0897 10.319 28.139C10.2206 28.1883 10.0923 28.2199 9.95432 28.2289C9.69163 28.2507 9.43559 28.2892 9.19238 28.3434C9.43467 28.3989 9.69104 28.4375 9.95432 28.4579C10.0917 28.4678 10.2189 28.4997 10.317 28.5489C10.4151 28.598 10.4788 28.6617 10.4986 28.7305C10.5402 28.8614 10.6171 28.9889 10.7272 29.1095C10.8372 28.9889 10.9141 28.8614 10.9558 28.7305C10.9755 28.6617 11.0392 28.598 11.1373 28.5489C11.2354 28.4997 11.3627 28.4678 11.5 28.4579C11.7617 28.4378 12.0164 28.3993 12.2565 28.3434Z"/>
</mask>
<path d="M12.2565 28.3434C12.0155 28.2888 11.7611 28.2503 11.5 28.2289C11.3616 28.2204 11.2329 28.1889 11.1343 28.1395C11.0357 28.0901 10.9729 28.0256 10.9558 27.9563C10.9123 27.8256 10.8355 27.6983 10.7272 27.5774C10.6164 27.6978 10.5395 27.8253 10.4986 27.9563C10.4805 28.0255 10.4174 28.0897 10.319 28.139C10.2206 28.1883 10.0923 28.2199 9.95432 28.2289C9.69163 28.2507 9.43559 28.2892 9.19238 28.3434C9.43467 28.3989 9.69104 28.4375 9.95432 28.4579C10.0917 28.4678 10.2189 28.4997 10.317 28.5489C10.4151 28.598 10.4788 28.6617 10.4986 28.7305C10.5402 28.8614 10.6171 28.9889 10.7272 29.1095C10.8372 28.9889 10.9141 28.8614 10.9558 28.7305C10.9755 28.6617 11.0392 28.598 11.1373 28.5489C11.2354 28.4997 11.3627 28.4678 11.5 28.4579C11.7617 28.4378 12.0164 28.3993 12.2565 28.3434Z" fill="url(#paint6_linear_34_2)"/>
<path d="M10.9558 27.9563L12.8973 27.4765L12.8784 27.4L12.8536 27.3253L10.9558 27.9563ZM10.7272 27.5774L12.2168 26.2428L10.7465 24.6017L9.25501 26.2236L10.7272 27.5774ZM9.19238 28.3434L8.75678 26.3914L8.74572 30.2929L9.19238 28.3434ZM10.7272 29.1095L9.24997 30.4577L10.7272 32.0762L12.2044 30.4577L10.7272 29.1095ZM12.6986 26.3929C12.3604 26.3163 12.0126 26.2642 11.6632 26.2356L11.3368 30.2223C11.5097 30.2364 11.6706 30.2614 11.8145 30.294L12.6986 26.3929ZM11.6238 26.2328C11.6652 26.2353 11.7165 26.2419 11.7775 26.2568C11.8363 26.2712 11.9243 26.2983 12.03 26.3513L10.2386 29.9277C10.6312 30.1244 11.0359 30.204 11.3762 30.2251L11.6238 26.2328ZM12.03 26.3513C12.1324 26.4025 12.2877 26.4963 12.4465 26.6592C12.6064 26.8232 12.8026 27.093 12.8973 27.4765L9.01418 28.4362C9.23354 29.3237 9.90221 29.7592 10.2386 29.9277L12.03 26.3513ZM12.8536 27.3253C12.7097 26.8925 12.4758 26.5319 12.2168 26.2428L9.2376 28.912C9.19519 28.8646 9.11492 28.7588 9.05792 28.5874L12.8536 27.3253ZM9.25501 26.2236C8.98263 26.5198 8.73381 26.8982 8.58957 27.3599L12.4076 28.5527C12.3452 28.7524 12.2503 28.8758 12.1993 28.9312L9.25501 26.2236ZM8.56328 27.4517C8.6611 27.0765 8.8551 26.8133 9.01274 26.653C9.16946 26.4935 9.32215 26.4014 9.42329 26.3508L11.2147 29.9272C11.5505 29.759 12.207 29.3309 12.4339 28.461L8.56328 27.4517ZM9.42329 26.3508C9.52768 26.2985 9.61448 26.2716 9.67251 26.2573C9.7327 26.2424 9.7832 26.2359 9.82376 26.2332L10.0849 30.2247C10.4233 30.2025 10.8249 30.1225 11.2147 29.9272L9.42329 26.3508ZM9.78932 26.2358C9.44078 26.2646 9.09408 26.3162 8.75678 26.3914L9.62798 30.2954C9.7771 30.2621 9.94248 30.2368 10.1193 30.2221L9.78932 26.2358ZM8.74572 30.2929C9.08975 30.3717 9.44394 30.4243 9.79937 30.4519L10.1093 26.4639C9.93814 26.4506 9.77958 26.4261 9.63904 26.3939L8.74572 30.2929ZM9.81061 30.4528C9.77163 30.4499 9.72265 30.4433 9.664 30.4286C9.60738 30.4144 9.52294 30.388 9.42133 30.3371L11.2127 26.7607C10.8284 26.5681 10.4327 26.4872 10.098 26.4631L9.81061 30.4528ZM9.42133 30.3371C9.32272 30.2877 9.17504 30.1987 9.02243 30.046C8.86928 29.8927 8.67941 29.6418 8.57625 29.2825L12.4209 28.1786C12.1807 27.3422 11.5466 26.9279 11.2127 26.7607L9.42133 30.3371ZM8.59275 29.337C8.73701 29.7904 8.98149 30.1636 9.24997 30.4577L12.2044 27.7612C12.2528 27.8142 12.3434 27.9325 12.4044 28.124L8.59275 29.337ZM12.2044 30.4577C12.4731 30.1634 12.7174 29.7901 12.8616 29.337L9.04994 28.124C9.11081 27.9328 9.20136 27.8145 9.24997 27.7612L12.2044 30.4577ZM12.8781 29.2825C12.7748 29.642 12.5848 29.893 12.4317 30.0462C12.2792 30.1988 12.1316 30.2877 12.033 30.3371L10.2416 26.7607C9.90822 26.9277 9.27368 27.3419 9.03343 28.1786L12.8781 29.2825ZM12.033 30.3371C11.9315 30.388 11.8471 30.4144 11.7904 30.4286C11.7317 30.4433 11.6827 30.4499 11.6437 30.4528L11.3563 26.4631C11.0215 26.4872 10.6259 26.5682 10.2416 26.7607L12.033 30.3371ZM11.6533 30.452C12.0094 30.4247 12.3647 30.3716 12.7095 30.2915L11.8036 26.3954C11.6681 26.4269 11.514 26.451 11.3467 26.4638L11.6533 30.452Z" fill="url(#paint7_linear_34_2)" mask="url(#path-5-inside-1_34_2)"/>
<path d="M62.2585 9.44344C61.7006 8.78496 61.0899 8.16704 60.4323 7.59434C61.2274 8.13673 61.9368 8.77412 62.54 9.48907C63.0633 10.1119 63.5069 10.7832 63.8636 11.4901C63.9151 11.6052 63.9647 11.7145 64.0127 11.8201C64.0964 12.0042 64.175 12.1772 64.2496 12.3506L64.2373 12.332C64.0932 12.1142 63.9658 11.8968 63.8237 11.6544C63.7798 11.5794 63.7344 11.502 63.6867 11.4215C63.491 11.0708 63.2682 10.7341 63.0203 10.4137C62.7956 10.0708 62.5406 9.74639 62.2585 9.44344Z" fill="url(#paint8_linear_34_2)" stroke="url(#paint9_linear_34_2)" stroke-width="2"/>
<path d="M100.7 58V22.5H113.6C117.467 22.5 120.7 23.3 123.3 24.9C125.9 26.4667 127.85 28.6 129.15 31.3C130.45 33.9667 131.1 36.9333 131.1 40.2C131.1 43.8 130.383 46.9333 128.95 49.6C127.517 52.2667 125.483 54.3333 122.85 55.8C120.25 57.2667 117.167 58 113.6 58H100.7ZM124.15 40.2C124.15 37.9 123.733 35.8833 122.9 34.15C122.067 32.3833 120.867 31.0167 119.3 30.05C117.733 29.05 115.833 28.55 113.6 28.55H107.6V51.95H113.6C115.867 51.95 117.783 51.45 119.35 50.45C120.917 49.4167 122.1 48.0167 122.9 46.25C123.733 44.45 124.15 42.4333 124.15 40.2ZM147.991 58.5C145.891 58.5 143.991 58.15 142.291 57.45C140.591 56.7167 139.141 55.7333 137.941 54.5C136.741 53.2333 135.808 51.8 135.141 50.2C134.508 48.5667 134.191 46.85 134.191 45.05C134.191 42.55 134.741 40.2667 135.841 38.2C136.974 36.1333 138.574 34.4833 140.641 33.25C142.741 31.9833 145.208 31.35 148.041 31.35C150.908 31.35 153.358 31.9833 155.391 33.25C157.424 34.4833 158.974 36.1333 160.041 38.2C161.141 40.2333 161.691 42.4333 161.691 44.8C161.691 45.2 161.674 45.6167 161.641 46.05C161.608 46.45 161.574 46.7833 161.541 47.05H141.291C141.424 48.3833 141.808 49.55 142.441 50.55C143.108 51.55 143.941 52.3167 144.941 52.85C145.974 53.35 147.074 53.6 148.241 53.6C149.574 53.6 150.824 53.2833 151.991 52.65C153.191 51.9833 154.008 51.1167 154.441 50.05L160.191 51.65C159.558 52.9833 158.641 54.1667 157.441 55.2C156.274 56.2333 154.891 57.05 153.291 57.65C151.691 58.2167 149.924 58.5 147.991 58.5ZM141.141 42.8H154.841C154.708 41.4667 154.324 40.3167 153.691 39.35C153.091 38.35 152.291 37.5833 151.291 37.05C150.291 36.4833 149.174 36.2 147.941 36.2C146.741 36.2 145.641 36.4833 144.641 37.05C143.674 37.5833 142.874 38.35 142.241 39.35C141.641 40.3167 141.274 41.4667 141.141 42.8ZM190.123 58H183.423V43.3C183.423 41.2 183.056 39.6667 182.323 38.7C181.589 37.7333 180.573 37.25 179.273 37.25C178.373 37.25 177.456 37.4833 176.523 37.95C175.623 38.4167 174.806 39.0667 174.073 39.9C173.339 40.7 172.806 41.6333 172.473 42.7V58H165.773V31.8H171.823V36.65C172.489 35.5167 173.339 34.5667 174.373 33.8C175.406 33 176.589 32.4 177.923 32C179.289 31.5667 180.723 31.35 182.223 31.35C183.856 31.35 185.189 31.65 186.223 32.25C187.289 32.8167 188.089 33.6 188.623 34.6C189.189 35.5667 189.573 36.6667 189.773 37.9C190.006 39.1333 190.123 40.3833 190.123 41.65V58ZM211.502 56.65C210.935 56.8833 210.252 57.15 209.452 57.45C208.652 57.75 207.785 57.9833 206.852 58.15C205.952 58.35 205.035 58.45 204.102 58.45C202.869 58.45 201.735 58.2333 200.702 57.8C199.669 57.3667 198.835 56.6833 198.202 55.75C197.602 54.7833 197.302 53.5333 197.302 52V36.95H193.852V31.8H197.302V23.3H204.002V31.8H209.502V36.95H204.002V49.75C204.035 50.65 204.285 51.3 204.752 51.7C205.219 52.1 205.802 52.3 206.502 52.3C207.202 52.3 207.885 52.1833 208.552 51.95C209.219 51.7167 209.752 51.5167 210.152 51.35L211.502 56.65ZM213.191 50.25C213.191 48.55 213.658 47.0667 214.591 45.8C215.558 44.5 216.891 43.5 218.591 42.8C220.291 42.1 222.241 41.75 224.441 41.75C225.541 41.75 226.658 41.8333 227.791 42C228.925 42.1667 229.908 42.4333 230.741 42.8V41.4C230.741 39.7333 230.241 38.45 229.241 37.55C228.275 36.65 226.825 36.2 224.891 36.2C223.458 36.2 222.091 36.45 220.791 36.95C219.491 37.45 218.125 38.1833 216.691 39.15L214.541 34.75C216.275 33.6167 218.041 32.7667 219.841 32.2C221.675 31.6333 223.591 31.35 225.591 31.35C229.325 31.35 232.225 32.2833 234.291 34.15C236.391 36.0167 237.441 38.6833 237.441 42.15V50.5C237.441 51.2 237.558 51.7 237.791 52C238.058 52.3 238.475 52.4833 239.041 52.55V58C238.441 58.1 237.891 58.1833 237.391 58.25C236.925 58.3167 236.525 58.35 236.191 58.35C234.858 58.35 233.841 58.05 233.141 57.45C232.475 56.85 232.058 56.1167 231.891 55.25L231.741 53.9C230.608 55.3667 229.191 56.5 227.491 57.3C225.791 58.1 224.058 58.5 222.291 58.5C220.558 58.5 218.991 58.15 217.591 57.45C216.225 56.7167 215.141 55.7333 214.341 54.5C213.575 53.2333 213.191 51.8167 213.191 50.25ZM229.491 51.6C229.858 51.2 230.158 50.8 230.391 50.4C230.625 50 230.741 49.6333 230.741 49.3V46.65C229.941 46.3167 229.075 46.0667 228.141 45.9C227.208 45.7 226.325 45.6 225.491 45.6C223.758 45.6 222.325 45.9833 221.191 46.75C220.091 47.4833 219.541 48.4667 219.541 49.7C219.541 50.3667 219.725 51 220.091 51.6C220.458 52.2 220.991 52.6833 221.691 53.05C222.391 53.4167 223.225 53.6 224.191 53.6C225.191 53.6 226.175 53.4167 227.141 53.05C228.108 52.65 228.891 52.1667 229.491 51.6ZM243.652 21.5H250.352V49.6C250.352 50.8 250.552 51.6167 250.952 52.05C251.352 52.45 251.902 52.65 252.602 52.65C253.136 52.65 253.686 52.5833 254.252 52.45C254.819 52.3167 255.319 52.15 255.752 51.95L256.652 57.05C255.752 57.4833 254.702 57.8167 253.502 58.05C252.302 58.2833 251.219 58.4 250.252 58.4C248.152 58.4 246.519 57.85 245.352 56.75C244.219 55.6167 243.652 54.0167 243.652 51.95V21.5ZM274.471 58.5C272.471 58.5 270.688 58.05 269.121 57.15C267.555 56.25 266.321 55.0167 265.421 53.45V58H259.571V21.5H266.271V36.4C267.205 34.8333 268.421 33.6 269.921 32.7C271.455 31.8 273.238 31.35 275.271 31.35C276.971 31.35 278.521 31.7167 279.921 32.45C281.321 33.15 282.521 34.1333 283.521 35.4C284.555 36.6667 285.338 38.1167 285.871 39.75C286.438 41.3833 286.721 43.1333 286.721 45C286.721 46.8667 286.405 48.6167 285.771 50.25C285.171 51.8833 284.321 53.3333 283.221 54.6C282.121 55.8333 280.821 56.8 279.321 57.5C277.855 58.1667 276.238 58.5 274.471 58.5ZM272.621 52.8C273.688 52.8 274.655 52.6 275.521 52.2C276.421 51.7667 277.188 51.2 277.821 50.5C278.488 49.8 278.988 48.9833 279.321 48.05C279.688 47.0833 279.871 46.0833 279.871 45.05C279.871 43.6167 279.571 42.3 278.971 41.1C278.405 39.8667 277.605 38.8833 276.571 38.15C275.571 37.4167 274.388 37.05 273.021 37.05C272.055 37.05 271.121 37.2833 270.221 37.75C269.355 38.1833 268.571 38.7833 267.871 39.55C267.205 40.3167 266.671 41.1833 266.271 42.15V48.4C266.471 49.0667 266.788 49.6667 267.221 50.2C267.688 50.7333 268.221 51.2 268.821 51.6C269.421 51.9667 270.038 52.2667 270.671 52.5C271.338 52.7 271.988 52.8 272.621 52.8ZM303.411 58.5C301.311 58.5 299.411 58.15 297.711 57.45C296.011 56.7167 294.561 55.7333 293.361 54.5C292.161 53.2333 291.228 51.8 290.561 50.2C289.928 48.5667 289.611 46.85 289.611 45.05C289.611 42.55 290.161 40.2667 291.261 38.2C292.394 36.1333 293.994 34.4833 296.061 33.25C298.161 31.9833 300.628 31.35 303.461 31.35C306.328 31.35 308.778 31.9833 310.811 33.25C312.844 34.4833 314.394 36.1333 315.461 38.2C316.561 40.2333 317.111 42.4333 317.111 44.8C317.111 45.2 317.094 45.6167 317.061 46.05C317.028 46.45 316.994 46.7833 316.961 47.05H296.711C296.844 48.3833 297.228 49.55 297.861 50.55C298.528 51.55 299.361 52.3167 300.361 52.85C301.394 53.35 302.494 53.6 303.661 53.6C304.994 53.6 306.244 53.2833 307.411 52.65C308.611 51.9833 309.428 51.1167 309.861 50.05L315.611 51.65C314.978 52.9833 314.061 54.1667 312.861 55.2C311.694 56.2333 310.311 57.05 308.711 57.65C307.111 58.2167 305.344 58.5 303.411 58.5ZM296.561 42.8H310.261C310.128 41.4667 309.744 40.3167 309.111 39.35C308.511 38.35 307.711 37.5833 306.711 37.05C305.711 36.4833 304.594 36.2 303.361 36.2C302.161 36.2 301.061 36.4833 300.061 37.05C299.094 37.5833 298.294 38.35 297.661 39.35C297.061 40.3167 296.694 41.4667 296.561 42.8ZM319.393 50.25C319.393 48.55 319.859 47.0667 320.793 45.8C321.759 44.5 323.093 43.5 324.793 42.8C326.493 42.1 328.443 41.75 330.643 41.75C331.743 41.75 332.859 41.8333 333.993 42C335.126 42.1667 336.109 42.4333 336.943 42.8V41.4C336.943 39.7333 336.443 38.45 335.443 37.55C334.476 36.65 333.026 36.2 331.093 36.2C329.659 36.2 328.293 36.45 326.993 36.95C325.693 37.45 324.326 38.1833 322.893 39.15L320.743 34.75C322.476 33.6167 324.243 32.7667 326.043 32.2C327.876 31.6333 329.793 31.35 331.793 31.35C335.526 31.35 338.426 32.2833 340.493 34.15C342.593 36.0167 343.643 38.6833 343.643 42.15V50.5C343.643 51.2 343.759 51.7 343.993 52C344.259 52.3 344.676 52.4833 345.243 52.55V58C344.643 58.1 344.093 58.1833 343.593 58.25C343.126 58.3167 342.726 58.35 342.393 58.35C341.059 58.35 340.043 58.05 339.343 57.45C338.676 56.85 338.259 56.1167 338.093 55.25L337.943 53.9C336.809 55.3667 335.393 56.5 333.693 57.3C331.993 58.1 330.259 58.5 328.493 58.5C326.759 58.5 325.193 58.15 323.793 57.45C322.426 56.7167 321.343 55.7333 320.543 54.5C319.776 53.2333 319.393 51.8167 319.393 50.25ZM335.693 51.6C336.059 51.2 336.359 50.8 336.593 50.4C336.826 50 336.943 49.6333 336.943 49.3V46.65C336.143 46.3167 335.276 46.0667 334.343 45.9C333.409 45.7 332.526 45.6 331.693 45.6C329.959 45.6 328.526 45.9833 327.393 46.75C326.293 47.4833 325.743 48.4667 325.743 49.7C325.743 50.3667 325.926 51 326.293 51.6C326.659 52.2 327.193 52.6833 327.893 53.05C328.593 53.4167 329.426 53.6 330.393 53.6C331.393 53.6 332.376 53.4167 333.343 53.05C334.309 52.65 335.093 52.1667 335.693 51.6ZM349.654 48.2V31.8H356.354V46.75C356.354 48.75 356.72 50.2667 357.454 51.3C358.187 52.3 359.27 52.8 360.704 52.8C361.57 52.8 362.42 52.6333 363.254 52.3C364.12 51.9333 364.904 51.4 365.604 50.7C366.337 50 366.954 49.1167 367.454 48.05V31.8H374.154V50.5C374.154 51.2 374.27 51.7 374.504 52C374.77 52.3 375.187 52.4833 375.754 52.55V58C375.087 58.1 374.52 58.1667 374.054 58.2C373.62 58.2667 373.22 58.3 372.854 58.3C371.654 58.3 370.67 58.0333 369.904 57.5C369.17 56.9333 368.737 56.1667 368.604 55.2L368.454 53.1C367.287 54.8667 365.787 56.2167 363.954 57.15C362.12 58.05 360.104 58.5 357.904 58.5C355.204 58.5 353.154 57.6333 351.754 55.9C350.354 54.1333 349.654 51.5667 349.654 48.2ZM396.414 56.65C395.847 56.8833 395.164 57.15 394.364 57.45C393.564 57.75 392.697 57.9833 391.764 58.15C390.864 58.35 389.947 58.45 389.014 58.45C387.781 58.45 386.647 58.2333 385.614 57.8C384.581 57.3667 383.747 56.6833 383.114 55.75C382.514 54.7833 382.214 53.5333 382.214 52V36.95H378.764V31.8H382.214V23.3H388.914V31.8H394.414V36.95H388.914V49.75C388.947 50.65 389.197 51.3 389.664 51.7C390.131 52.1 390.714 52.3 391.414 52.3C392.114 52.3 392.797 52.1833 393.464 51.95C394.131 51.7167 394.664 51.5167 395.064 51.35L396.414 56.65ZM400.356 63.1C400.956 63.2333 401.506 63.35 402.006 63.45C402.539 63.55 402.989 63.6 403.356 63.6C403.989 63.6 404.506 63.4333 404.906 63.1C405.339 62.8 405.756 62.2333 406.156 61.4C406.556 60.6 406.973 59.4667 407.406 58L397.056 31.8H404.006L411.056 51.15L417.256 31.8H423.656L412.656 63.2C412.256 64.3667 411.639 65.4167 410.806 66.35C410.006 67.3167 408.989 68.0667 407.756 68.6C406.556 69.1667 405.206 69.45 403.706 69.45C403.173 69.45 402.639 69.4 402.106 69.3C401.573 69.2333 400.989 69.1 400.356 68.9V63.1Z" fill="#00686C"/>
<defs>
<linearGradient id="paint0_linear_34_2" x1="22.215" y1="36.7698" x2="22.215" y2="81.2" gradientUnits="userSpaceOnUse">
<stop stop-color="#32C2B9"/>
<stop offset="1" stop-color="#00686C"/>
</linearGradient>
<linearGradient id="paint1_linear_34_2" x1="36.0038" y1="0" x2="36.0038" y2="81.2" gradientUnits="userSpaceOnUse">
<stop stop-color="#32C2B9"/>
<stop offset="1" stop-color="#00686C"/>
</linearGradient>
<linearGradient id="paint2_linear_34_2" x1="11.485" y1="9.21055" x2="11.485" y2="16.8346" gradientUnits="userSpaceOnUse">
<stop offset="0.28" stop-color="white"/>
<stop offset="0.93" stop-color="#E4F4FE"/>
</linearGradient>
<linearGradient id="paint3_linear_34_2" x1="11.4905" y1="9.19238" x2="11.4905" y2="16.8528" gradientUnits="userSpaceOnUse">
<stop stop-color="#32C2B9"/>
<stop offset="1" stop-color="#00686C"/>
</linearGradient>
<linearGradient id="paint4_linear_34_2" x1="19.1033" y1="16.8242" x2="19.1033" y2="21.4834" gradientUnits="userSpaceOnUse">
<stop offset="0.28" stop-color="white"/>
<stop offset="0.93" stop-color="#E4F4FE"/>
</linearGradient>
<linearGradient id="paint5_linear_34_2" x1="19.151" y1="16.8528" x2="19.151" y2="21.449" gradientUnits="userSpaceOnUse">
<stop stop-color="#32C2B9"/>
<stop offset="1" stop-color="#00686C"/>
</linearGradient>
<linearGradient id="paint6_linear_34_2" x1="10.7435" y1="27.5828" x2="10.7435" y2="29.1013" gradientUnits="userSpaceOnUse">
<stop offset="0.28" stop-color="white"/>
<stop offset="0.93" stop-color="#E4F4FE"/>
</linearGradient>
<linearGradient id="paint7_linear_34_2" x1="10.7245" y1="27.5774" x2="10.7245" y2="29.1095" gradientUnits="userSpaceOnUse">
<stop stop-color="#32C2B9"/>
<stop offset="1" stop-color="#00686C"/>
</linearGradient>
<linearGradient id="paint8_linear_34_2" x1="59.7539" y1="3.58764" x2="59.7539" y2="18.3683" gradientUnits="userSpaceOnUse">
<stop offset="0.28" stop-color="white"/>
<stop offset="0.93" stop-color="#E4F4FE"/>
</linearGradient>
<linearGradient id="paint9_linear_34_2" x1="59.7509" y1="4.59619" x2="59.7509" y2="18.3849" gradientUnits="userSpaceOnUse">
<stop stop-color="#32C2B9"/>
<stop offset="1" stop-color="#00686C"/>
</linearGradient>
</defs>
</svg>
