<svg width="369" height="56" viewBox="0 0 369 56" fill="none" xmlns="http://www.w3.org/2000/svg">
<path d="M11.3313 33.5109C12.041 33.633 12.669 33.6841 13.2148 33.6903C13.9042 33.6982 14.4526 33.6342 14.8584 33.5563C15.0609 33.5173 15.2267 33.4752 15.3558 33.4372C15.4204 33.4182 15.4756 33.4003 15.5216 33.3845C15.5446 33.3765 15.5652 33.3691 15.5835 33.3623L15.6093 33.3526L15.6208 33.3482L15.6263 33.346L15.6289 33.345C15.6302 33.3445 15.6315 33.344 14.8951 31.4845L15.6315 33.344L20.8429 31.2801C21.0631 31.6763 21.2638 32.0864 21.4439 32.5086C21.3137 32.6483 21.1936 32.7976 21.0847 32.9549C19.3187 35.4893 18.3159 39.3196 17.7069 42.8868C17.0834 46.5392 16.8209 50.2574 16.7089 52.7995L16.7083 52.8133L16.7078 52.8271C16.7035 52.9723 16.6641 53.1021 16.6072 53.202C16.5508 53.3011 16.4864 53.3561 16.44 53.3828C16.396 53.4083 16.3632 53.4121 16.3411 53.4109C16.321 53.4098 16.2879 53.4033 16.2451 53.3761C15.3697 52.6917 14.6051 51.3929 13.9768 49.0716C13.3489 46.7519 12.9398 43.7419 12.5327 39.9945L12.503 39.7026L12.5021 39.6937L12.5011 39.6849C12.2692 37.5929 11.8776 35.5276 11.3313 33.5109ZM10.2107 27.1891C14.7501 26.6864 17.9182 28.2191 20.0707 30.0244L20.0577 30.0397C20.1294 30.1396 20.1997 30.2407 20.2686 30.343L15.2203 29.5111C13.1742 29.1739 11.4708 28.1849 10.2107 27.1891Z" stroke="url(#paint0_linear_7_110)" stroke-width="4"/>
<path d="M34.3702 32.0816C33.6945 33.964 33.6957 33.9645 33.697 33.9649L33.6995 33.9658L33.7046 33.9676L33.7156 33.9715L33.7404 33.98C33.7582 33.9859 33.7784 33.9925 33.8011 33.9996C33.8464 34.0138 33.9016 34.03 33.9665 34.0473C34.0964 34.0819 34.2652 34.1209 34.4727 34.157C34.8882 34.2294 35.4559 34.2898 36.1743 34.2824C36.7905 34.276 37.5122 34.2198 38.3388 34.0809C37.7609 36.0309 37.346 38.0281 37.0998 40.0518L37.0987 40.0609L37.0977 40.07L37.0666 40.3465C37.0663 40.3488 37.0661 40.3511 37.0658 40.3534C36.6277 44.0076 36.1893 46.9226 35.5189 49.1641C34.854 51.3877 34.0449 52.6498 33.079 53.3369C33.0034 53.3813 32.9184 53.4065 32.8313 53.4106C32.7364 53.415 32.6417 53.3941 32.557 53.3498L31.6305 55.1223L32.5569 53.3498C32.4721 53.3054 32.3998 53.239 32.348 53.1567C32.2962 53.0744 32.2667 52.9793 32.2632 52.8812L32.2628 52.8693L32.2622 52.8574C32.1455 50.4298 31.8727 46.9066 31.2347 43.4132C30.625 40.0752 29.6374 36.4955 27.9493 33.9664C27.827 33.7255 27.6949 33.4695 27.5528 33.2179L27.5407 33.1963L27.5404 33.1959L27.5312 33.1789C27.5188 33.1562 27.4926 33.1083 27.4553 33.0478C25.8307 30.1421 24.1918 28.7263 23.2645 28.093C19.7345 25.1236 14.0976 22.6428 6.01593 24.3911C5.98724 24.3477 5.95825 24.3043 5.92894 24.2609C4.00793 21.2384 2.43625 17.4639 2.07716 13.8476C1.72154 10.2664 2.55417 7.00712 5.22088 4.58502L5.22142 4.58453C7.78154 2.25754 10.6849 1.74802 13.5166 2.1005C16.2507 2.44083 18.8479 3.58578 20.7519 4.65122C20.4109 5.33497 20.1759 5.9411 20.0143 6.45655C19.8593 6.95134 19.7733 7.35832 19.7259 7.66526C19.7022 7.81858 19.6882 7.9465 19.68 8.04749C19.6759 8.09797 19.6733 8.14169 19.6716 8.17844C19.6713 8.18476 19.671 8.19087 19.6708 8.19678C19.6703 8.20805 19.67 8.21856 19.6697 8.22832L19.6692 8.24929L19.669 8.25877L19.669 8.26326L19.6689 8.26545C19.6689 8.26652 19.6689 8.26759 21.6688 8.29073L19.6689 8.26759L23.412 9.27117C24.322 7.6531 25.5744 6.25604 27.0798 5.1775C27.2815 5.08751 27.4787 4.98753 27.6705 4.8779L27.6705 4.87791L27.677 4.87415C29.6127 3.7583 32.3527 2.49746 35.2435 2.13738C38.0726 1.78501 40.9717 2.29419 43.5299 4.62099L43.5332 4.62402C46.2104 7.04802 47.0497 10.3082 46.6984 13.8868C46.3427 17.5104 44.7649 21.2929 42.8308 24.3174C42.5667 24.7301 42.3113 25.1473 42.0666 25.5487C41.383 26.3534 38.4648 29.4479 34.0747 30.1035L33.6945 33.964L34.3702 32.0816Z" stroke="url(#paint1_linear_7_110)" stroke-width="4"/>
<mask id="path-3-inside-1_7_110" fill="white">
<path d="M9.33959 8.88875C9.09196 8.69264 8.8295 8.55363 8.55942 8.47551C8.42406 8.43926 8.29901 8.33267 8.20207 8.17092C8.10512 8.00917 8.04123 7.80051 8.0195 7.57465C7.97269 7.12403 7.88937 6.68612 7.77183 6.27295C7.66044 6.68799 7.58217 7.12563 7.53902 7.57465C7.52062 7.80326 7.45911 8.01617 7.36339 8.18257C7.26766 8.34898 7.14269 8.46026 7.00654 8.5003C6.7359 8.57449 6.47311 8.71368 6.22638 8.91354C6.4743 9.10312 6.7369 9.23387 7.00654 9.30199C7.14111 9.33878 7.26536 9.44512 7.36178 9.606C7.4582 9.76688 7.52193 9.97419 7.54398 10.1987C7.58481 10.6486 7.66317 11.0868 7.77679 11.5004C7.89658 11.0887 7.98 10.6503 8.02446 10.1987C8.04604 9.97344 8.10957 9.7652 8.20603 9.60352C8.30249 9.44183 8.42699 9.3349 8.5619 9.29785C8.83103 9.22084 9.09265 9.08322 9.33959 8.88875Z"/>
</mask>
<path d="M9.33959 8.88875C9.09196 8.69264 8.8295 8.55363 8.55942 8.47551C8.42406 8.43926 8.29901 8.33267 8.20207 8.17092C8.10512 8.00917 8.04123 7.80051 8.0195 7.57465C7.97269 7.12403 7.88937 6.68612 7.77183 6.27295C7.66044 6.68799 7.58217 7.12563 7.53902 7.57465C7.52062 7.80326 7.45911 8.01617 7.36339 8.18257C7.26766 8.34898 7.14269 8.46026 7.00654 8.5003C6.7359 8.57449 6.47311 8.71368 6.22638 8.91354C6.4743 9.10312 6.7369 9.23387 7.00654 9.30199C7.14111 9.33878 7.26536 9.44512 7.36178 9.606C7.4582 9.76688 7.52193 9.97419 7.54398 10.1987C7.58481 10.6486 7.66317 11.0868 7.77679 11.5004C7.89658 11.0887 7.98 10.6503 8.02446 10.1987C8.04604 9.97344 8.10957 9.7652 8.20603 9.60352C8.30249 9.44183 8.42699 9.3349 8.5619 9.29785C8.83103 9.22084 9.09265 9.08322 9.33959 8.88875Z" fill="url(#paint2_linear_7_110)"/>
<path d="M7.77183 6.27295L11.6192 5.1785L7.6597 -8.74049L3.90856 5.23609L7.77183 6.27295ZM7.53902 7.57465L3.55736 7.19206L3.5544 7.22287L3.55192 7.25373L7.53902 7.57465ZM6.22638 8.91354L3.70863 5.80534L-0.240217 9.00404L3.7966 12.091L6.22638 8.91354ZM7.77679 11.5004L3.91966 12.5599L7.66597 26.1985L11.6175 12.6179L7.77679 11.5004ZM11.8229 5.75297C11.2183 5.27416 10.4977 4.87217 9.67081 4.63301L7.44803 12.318C7.16131 12.2351 6.96562 12.1111 6.85626 12.0245L11.8229 5.75297ZM9.59411 4.61165C10.7686 4.92616 11.3853 5.7013 11.633 6.11461L4.77109 10.2272C5.21269 10.964 6.07953 11.9524 7.52473 12.3394L9.59411 4.61165ZM11.633 6.11461C11.8975 6.5558 11.9773 6.94412 12.0011 7.19166L4.03788 7.95765C4.10514 8.6569 4.31279 9.46254 4.77109 10.2272L11.633 6.11461ZM11.9981 7.16129C11.9286 6.49277 11.8035 5.82624 11.6192 5.1785L3.92447 7.3674C3.97528 7.54599 4.01674 7.75529 4.04092 7.98801L11.9981 7.16129ZM3.90856 5.23609C3.73684 5.87588 3.6207 6.53294 3.55736 7.19206L11.5207 7.95724C11.5436 7.71831 11.584 7.5001 11.6351 7.30981L3.90856 5.23609ZM3.55192 7.25373C3.57184 7.00621 3.64513 6.62438 3.89615 6.18802L10.8306 10.1771C11.2731 9.40795 11.4694 8.6003 11.5261 7.89557L3.55192 7.25373ZM3.89615 6.18802C4.12885 5.78349 4.72023 5.00335 5.8778 4.66286L8.13529 12.3377C9.56515 11.9172 10.4065 10.9145 10.8306 10.1771L3.89615 6.18802ZM5.94913 4.6426C5.07929 4.88103 4.32867 5.30308 3.70863 5.80534L8.74413 12.0217C8.61755 12.1243 8.39251 12.268 8.06395 12.358L5.94913 4.6426ZM3.7966 12.091C4.42274 12.5698 5.17071 12.9639 6.0269 13.1802L7.98619 5.42381C8.3031 5.50386 8.52585 5.63645 8.65616 5.7361L3.7966 12.091ZM5.95143 13.1603C4.78875 12.8424 4.17763 12.0741 3.93081 11.6623L10.7928 7.54968C10.3531 6.8161 9.49347 5.8352 8.06165 5.44365L5.95143 13.1603ZM3.93081 11.6623C3.66754 11.223 3.58737 10.8364 3.56314 10.5897L11.5248 9.80768C11.4565 9.112 11.2489 8.31072 10.7928 7.54968L3.93081 11.6623ZM3.56035 10.5602C3.62145 11.2336 3.74006 11.9061 3.91966 12.5599L11.6339 10.4409C11.5863 10.2675 11.5482 10.0636 11.5276 9.83725L3.56035 10.5602ZM11.6175 12.6179C11.8101 11.9559 11.938 11.2737 12.0052 10.5907L4.04371 9.80677C4.02204 10.0269 3.98301 10.2216 3.93607 10.3829L11.6175 12.6179ZM12.0062 10.5801C11.9826 10.8271 11.9032 11.2136 11.6412 11.6529L4.7709 7.55416C4.31589 8.31684 4.10951 9.11974 4.04269 9.81728L12.0062 10.5801ZM11.6412 11.6529C11.3958 12.0641 10.7857 12.8353 9.62095 13.1551L7.50285 5.4406C6.06827 5.83448 5.20917 6.81952 4.7709 7.55416L11.6412 11.6529ZM9.66236 13.1435C10.4886 12.9071 11.2093 12.5078 11.8144 12.0313L6.86479 5.74624C6.97599 5.65867 7.17343 5.53462 7.46144 5.45221L9.66236 13.1435Z" fill="url(#paint3_linear_7_110)" mask="url(#path-3-inside-1_7_110)"/>
<mask id="path-5-inside-2_7_110" fill="white">
<path d="M15.566 13.0702C15.1551 12.9566 14.7211 12.8765 14.2753 12.8319C14.0475 12.8093 13.8372 12.7439 13.674 12.6451C13.5107 12.5463 13.4028 12.4191 13.3653 12.2812C13.2912 12.0115 13.1588 11.7489 12.9717 11.5C12.7846 11.7489 12.6522 12.0115 12.578 12.2812C12.5403 12.4186 12.4321 12.5453 12.2688 12.6434C12.1055 12.7416 11.8953 12.8062 11.6681 12.828C11.2216 12.8708 10.7872 12.951 10.3773 13.0663C10.7883 13.1799 11.2223 13.26 11.6681 13.3046C11.8959 13.3272 12.1062 13.3925 12.2694 13.4913C12.4327 13.5901 12.5406 13.7174 12.578 13.8553C12.6516 14.1251 12.784 14.3878 12.9717 14.6365C13.1621 14.3884 13.2946 14.1255 13.3653 13.8553C13.4015 13.7177 13.5082 13.5905 13.6703 13.4917C13.8324 13.3929 14.0419 13.3274 14.2689 13.3046C14.7165 13.2616 15.1527 13.1828 15.566 13.0702Z"/>
</mask>
<path d="M15.566 13.0702C15.1551 12.9566 14.7211 12.8765 14.2753 12.8319C14.0475 12.8093 13.8372 12.7439 13.674 12.6451C13.5107 12.5463 13.4028 12.4191 13.3653 12.2812C13.2912 12.0115 13.1588 11.7489 12.9717 11.5C12.7846 11.7489 12.6522 12.0115 12.578 12.2812C12.5403 12.4186 12.4321 12.5453 12.2688 12.6434C12.1055 12.7416 11.8953 12.8062 11.6681 12.828C11.2216 12.8708 10.7872 12.951 10.3773 13.0663C10.7883 13.1799 11.2223 13.26 11.6681 13.3046C11.8959 13.3272 12.1062 13.3925 12.2694 13.4913C12.4327 13.5901 12.5406 13.7174 12.578 13.8553C12.6516 14.1251 12.784 14.3878 12.9717 14.6365C13.1621 14.3884 13.2946 14.1255 13.3653 13.8553C13.4015 13.7177 13.5082 13.5905 13.6703 13.4917C13.8324 13.3929 14.0419 13.3274 14.2689 13.3046C14.7165 13.2616 15.1527 13.1828 15.566 13.0702Z" fill="url(#paint4_linear_7_110)"/>
<path d="M12.9717 11.5L16.1687 9.09601L12.9717 4.84441L9.77469 9.09601L12.9717 11.5ZM10.3773 13.0663L9.29449 9.21565L-4.516 13.0994L9.31161 16.9217L10.3773 13.0663ZM12.9717 14.6365L9.77877 17.0459L12.9443 21.2409L16.1446 17.0722L12.9717 14.6365ZM13.3653 13.8553L9.49663 12.8389L9.49571 12.8424L13.3653 13.8553ZM16.6318 9.21478C15.9914 9.03776 15.3333 8.91774 14.6731 8.85176L13.8775 16.8121C14.1089 16.8352 14.3188 16.8754 14.5003 16.9256L16.6318 9.21478ZM14.6713 8.85158C14.9196 8.87628 15.3067 8.95779 15.7451 9.22311L11.6028 16.0672C12.3676 16.5301 13.1754 16.7423 13.8793 16.8123L14.6713 8.85158ZM15.7451 9.22311C16.1585 9.47333 16.9134 10.0836 17.2255 11.2328L9.50517 13.3296C9.89217 14.7545 10.8629 15.6194 11.6028 16.0672L15.7451 9.22311ZM17.2221 11.2203C17.0002 10.4135 16.6242 9.70172 16.1687 9.09601L9.77469 13.904C9.69347 13.796 9.58215 13.6095 9.50861 13.3421L17.2221 11.2203ZM9.77469 9.09601C9.31922 9.70172 8.94322 10.4135 8.72129 11.2203L16.4348 13.3421C16.3612 13.6095 16.2499 13.796 16.1687 13.904L9.77469 9.09601ZM8.72101 11.2213C9.03704 10.0712 9.7952 9.46323 10.2084 9.21491L14.3292 16.072C15.069 15.6274 16.0435 14.7659 16.4351 13.3411L8.72101 11.2213ZM10.2084 9.21491C10.6474 8.95109 11.0351 8.87046 11.2849 8.84642L12.0512 16.8096C12.7556 16.7418 13.5636 16.5321 14.3292 16.072L10.2084 9.21491ZM11.2863 8.84629C10.6153 8.91063 9.94551 9.03257 9.29449 9.21565L11.4602 16.9169C11.629 16.8695 11.828 16.831 12.0498 16.8098L11.2863 8.84629ZM9.31161 16.9217C9.95201 17.0987 10.6101 17.2187 11.2703 17.2847L12.0658 9.32438C11.8345 9.30126 11.6246 9.26105 11.4431 9.21088L9.31161 16.9217ZM11.2721 17.2849C11.0238 17.2602 10.6367 17.1787 10.1983 16.9134L14.3406 10.0693C13.5757 9.60637 12.7679 9.39422 12.064 9.3242L11.2721 17.2849ZM10.1983 16.9134C9.78484 16.6631 9.02997 16.0529 8.71786 14.9036L16.4382 12.8069C16.0512 11.382 15.0805 10.5171 14.3406 10.0693L10.1983 16.9134ZM8.71907 14.9081C8.94091 15.7212 9.31976 16.4376 9.77877 17.0459L16.1646 12.2271C16.2482 12.3379 16.3624 12.5289 16.437 12.8025L8.71907 14.9081ZM16.1446 17.0722C16.6209 16.4517 17.0139 15.7127 17.235 14.8682L9.49571 12.8424C9.57533 12.5382 9.70334 12.3251 9.79883 12.2007L16.1446 17.0722ZM17.2341 14.8717C16.929 16.0329 16.1697 16.6527 15.7522 16.9072L11.5883 10.0762C10.8466 10.5284 9.874 11.4025 9.49663 12.8389L17.2341 14.8717ZM15.7522 16.9072C15.3104 17.1765 14.9196 17.2593 14.6695 17.2844L13.8682 9.32466C13.1642 9.39554 12.3545 9.60924 11.5883 10.0762L15.7522 16.9072ZM14.651 17.2863C15.3136 17.2227 15.9742 17.1047 16.6173 16.9296L14.5148 9.21081C14.3312 9.26081 14.1194 9.30051 13.8867 9.32285L14.651 17.2863Z" fill="url(#paint5_linear_7_110)" mask="url(#path-5-inside-2_7_110)"/>
<mask id="path-7-inside-3_7_110" fill="white">
<path d="M8.30185 19.3416C8.13858 19.3043 7.96629 19.278 7.78943 19.2635C7.6957 19.2576 7.60853 19.2361 7.54175 19.2024C7.47496 19.1687 7.43239 19.1247 7.42078 19.0774C7.39135 18.9882 7.33932 18.9013 7.26596 18.8188C7.19095 18.901 7.13883 18.988 7.11111 19.0774C7.0989 19.1246 7.05615 19.1684 6.98948 19.2021C6.92281 19.2357 6.83596 19.2573 6.74247 19.2635C6.56454 19.2783 6.39111 19.3046 6.22638 19.3416C6.39049 19.3795 6.56414 19.4058 6.74247 19.4197C6.83549 19.4265 6.92169 19.4483 6.98815 19.4818C7.0546 19.5153 7.09773 19.5588 7.11111 19.6058C7.13933 19.6951 7.19143 19.7821 7.26596 19.8643C7.34049 19.7821 7.39257 19.6951 7.42078 19.6058C7.43416 19.5588 7.47732 19.5153 7.54377 19.4818C7.61023 19.4483 7.69641 19.4265 7.78943 19.4197C7.96668 19.406 8.1392 19.3797 8.30185 19.3416Z"/>
</mask>
<path d="M8.30185 19.3416C8.13858 19.3043 7.96629 19.278 7.78943 19.2635C7.6957 19.2576 7.60853 19.2361 7.54175 19.2024C7.47496 19.1687 7.43239 19.1247 7.42078 19.0774C7.39135 18.9882 7.33932 18.9013 7.26596 18.8188C7.19095 18.901 7.13883 18.988 7.11111 19.0774C7.0989 19.1246 7.05615 19.1684 6.98948 19.2021C6.92281 19.2357 6.83596 19.2573 6.74247 19.2635C6.56454 19.2783 6.39111 19.3046 6.22638 19.3416C6.39049 19.3795 6.56414 19.4058 6.74247 19.4197C6.83549 19.4265 6.92169 19.4483 6.98815 19.4818C7.0546 19.5153 7.09773 19.5588 7.11111 19.6058C7.13933 19.6951 7.19143 19.7821 7.26596 19.8643C7.34049 19.7821 7.39257 19.6951 7.42078 19.6058C7.43416 19.5588 7.47732 19.5153 7.54377 19.4818C7.61023 19.4483 7.69641 19.4265 7.78943 19.4197C7.96668 19.406 8.1392 19.3797 8.30185 19.3416Z" fill="url(#paint6_linear_7_110)"/>
<path d="M7.42078 19.0774L11.3056 18.1244L11.2683 17.9724L11.2193 17.8238L7.42078 19.0774ZM7.26596 18.8188L10.255 16.1607L7.30463 12.8431L4.3116 16.1222L7.26596 18.8188ZM6.22638 19.3416L5.34898 15.439L5.32672 23.2391L6.22638 19.3416ZM7.26596 19.8643L4.30155 22.5499L7.26596 25.8221L10.2304 22.5499L7.26596 19.8643ZM9.19217 15.4419C8.83341 15.36 8.47291 15.3063 8.11822 15.277L7.46064 23.2499C7.45932 23.2498 7.45513 23.2494 7.4478 23.2483C7.44053 23.2472 7.42845 23.2451 7.41153 23.2413L9.19217 15.4419ZM8.03883 15.2712C8.35243 15.2908 8.82036 15.3672 9.34383 15.6314L5.73966 22.7735C6.3967 23.105 7.03897 23.2244 7.54003 23.2557L8.03883 15.2712ZM9.34383 15.6314C9.75913 15.8409 10.9175 16.5426 11.3056 18.1244L3.53597 20.0305C3.94724 21.7069 5.19079 22.4965 5.73966 22.7735L9.34383 15.6314ZM11.2193 17.8238C10.9914 17.1334 10.6285 16.5807 10.255 16.1607L4.27695 21.477C4.05015 21.222 3.79129 20.8431 3.62232 20.3311L11.2193 17.8238ZM4.3116 16.1222C3.91454 16.5572 3.52235 17.1453 3.29059 17.8927L10.9316 20.2622C10.7553 20.8307 10.4674 21.2448 10.2203 21.5155L4.3116 16.1222ZM3.23871 18.0752C3.63921 16.5278 4.77318 15.84 5.18739 15.631L8.79156 22.7731C9.33911 22.4968 10.5586 21.7214 10.9835 20.0797L3.23871 18.0752ZM5.18739 15.631C5.70572 15.3694 6.16881 15.2926 6.4794 15.2721L7.00554 23.2548C7.50311 23.222 8.13989 23.102 8.79156 22.7731L5.18739 15.631ZM6.41002 15.2773C6.05913 15.3066 5.70312 15.3594 5.34898 15.439L7.10378 23.2442C7.09071 23.2471 7.08221 23.2485 7.07823 23.2491C7.0742 23.2497 7.07319 23.2498 7.07492 23.2496L6.41002 15.2773ZM5.32672 23.2391C5.69562 23.3243 6.06626 23.379 6.43028 23.4075L7.05466 15.4319C7.06202 15.4325 7.08535 15.4347 7.12604 15.4441L5.32672 23.2391ZM6.45292 23.4092C6.14788 23.3871 5.69424 23.3093 5.18607 23.0528L8.79023 15.9107C8.14915 15.5872 7.5231 15.4659 7.03202 15.4302L6.45292 23.4092ZM5.18607 23.0528C4.7752 22.8455 3.6867 22.1842 3.2643 20.7021L10.9579 18.5094C10.5088 16.9334 9.33401 16.1851 8.79023 15.9107L5.18607 23.0528ZM3.29688 20.8106C3.52773 21.5414 3.91139 22.1192 4.30155 22.5499L10.2304 17.1788C10.4715 17.4449 10.7509 17.8488 10.9253 18.4009L3.29688 20.8106ZM10.2304 22.5499C10.6209 22.1188 11.0043 21.5409 11.235 20.8106L3.60655 18.4009C3.78082 17.8492 4.06007 17.4453 4.30155 17.1788L10.2304 22.5499ZM11.2676 20.7021C10.845 22.1848 9.75588 22.8459 9.34585 23.0528L5.74169 15.9107C5.19876 16.1847 4.0233 16.9328 3.57397 18.5094L11.2676 20.7021ZM9.34585 23.0528C8.83782 23.3092 8.38421 23.3871 8.07898 23.4092L7.49988 15.4302C7.0086 15.4659 6.38263 15.5873 5.74169 15.9107L9.34585 23.0528ZM8.09825 23.4078C8.46585 23.3793 8.84081 23.3236 9.21418 23.2362L7.38952 15.447C7.43758 15.4358 7.46751 15.4327 7.48061 15.4317L8.09825 23.4078Z" fill="url(#paint7_linear_7_110)" mask="url(#path-7-inside-3_7_110)"/>
<mask id="path-9-inside-4_7_110" fill="white">
<path d="M36.3207 3.14738C36.9396 3.11214 37.5609 3.16055 38.1642 3.29104C38.4721 3.34775 38.7634 3.43848 39.0672 3.52165C39.371 3.60482 39.6498 3.73336 39.9369 3.85433C41.0936 4.35993 42.1019 5.10749 42.879 6.03567C43.2702 6.50461 43.6024 7.01183 43.8694 7.54786C43.9901 7.82006 44.1149 8.08469 44.2231 8.35689C44.3313 8.62908 44.3771 8.9164 44.4478 9.19616L44.5435 9.61201C44.5643 9.75567 44.5726 9.89933 44.581 10.0392C44.581 10.3227 44.6143 10.6063 44.6226 10.886C44.5927 11.4444 44.512 11.9995 44.3812 12.5457C44.1607 12.0088 44.0483 11.4871 43.8652 10.9805C43.7654 10.731 43.6696 10.4815 43.5823 10.2245C43.5323 10.1035 43.499 9.97494 43.4449 9.8464L43.2743 9.49482L42.9456 8.79165C42.8041 8.57616 42.6792 8.35311 42.5502 8.13384C42.4291 7.91424 42.29 7.70321 42.1341 7.5025C41.997 7.28884 41.8397 7.08645 41.6639 6.89762C40.9961 6.10109 40.2073 5.39466 39.321 4.79945C38.3784 4.16692 37.3741 3.61394 36.3207 3.14738Z"/>
</mask>
<path d="M36.3207 3.14738C36.9396 3.11214 37.5609 3.16055 38.1642 3.29104C38.4721 3.34775 38.7634 3.43848 39.0672 3.52165C39.371 3.60482 39.6498 3.73336 39.9369 3.85433C41.0936 4.35993 42.1019 5.10749 42.879 6.03567C43.2702 6.50461 43.6024 7.01183 43.8694 7.54786C43.9901 7.82006 44.1149 8.08469 44.2231 8.35689C44.3313 8.62908 44.3771 8.9164 44.4478 9.19616L44.5435 9.61201C44.5643 9.75567 44.5726 9.89933 44.581 10.0392C44.581 10.3227 44.6143 10.6063 44.6226 10.886C44.5927 11.4444 44.512 11.9995 44.3812 12.5457C44.1607 12.0088 44.0483 11.4871 43.8652 10.9805C43.7654 10.731 43.6696 10.4815 43.5823 10.2245C43.5323 10.1035 43.499 9.97494 43.4449 9.8464L43.2743 9.49482L42.9456 8.79165C42.8041 8.57616 42.6792 8.35311 42.5502 8.13384C42.4291 7.91424 42.29 7.70321 42.1341 7.5025C41.997 7.28884 41.8397 7.08645 41.6639 6.89762C40.9961 6.10109 40.2073 5.39466 39.321 4.79945C38.3784 4.16692 37.3741 3.61394 36.3207 3.14738Z" fill="url(#paint8_linear_7_110)"/>
<path d="M38.1642 3.29104L37.3186 7.20064L37.379 7.2137L37.4398 7.22489L38.1642 3.29104ZM39.9369 3.85433L41.5389 0.189158L41.5145 0.178489L41.49 0.168146L39.9369 3.85433ZM42.879 6.03567L45.9506 3.47345L45.946 3.46792L42.879 6.03567ZM43.8694 7.54786L47.5261 5.92664L47.4897 5.8446L47.4497 5.76427L43.8694 7.54786ZM44.4478 9.19616L48.3459 8.29884L48.3362 8.25708L48.3257 8.21553L44.4478 9.19616ZM44.5435 9.61201L48.5022 9.03865L48.4786 8.87542L48.4416 8.71469L44.5435 9.61201ZM44.581 10.0392H48.581V9.92031L48.5739 9.80163L44.581 10.0392ZM44.6226 10.886L48.6169 11.0998L48.6258 10.9335L48.6208 10.7671L44.6226 10.886ZM44.3812 12.5457L40.6813 14.0657L45.3881 25.5221L48.2713 13.4768L44.3812 12.5457ZM43.8652 10.9805L47.627 9.62088L47.604 9.55709L47.5788 9.49412L43.8652 10.9805ZM43.5823 10.2245L47.3694 8.93706L47.3283 8.81622L47.2796 8.69825L43.5823 10.2245ZM43.4449 9.8464L47.1317 8.29474L47.0903 8.19627L47.0436 8.10016L43.4449 9.8464ZM43.2743 9.49482L39.6508 11.189L39.663 11.2151L39.6756 11.2411L43.2743 9.49482ZM42.9456 8.79165L46.5691 7.0975L46.4472 6.8368L46.2892 6.59624L42.9456 8.79165ZM42.5502 8.13384L39.0479 10.066L39.0746 10.1145L39.1026 10.1622L42.5502 8.13384ZM42.1341 7.5025L38.7675 9.66255L38.8646 9.814L38.975 9.95611L42.1341 7.5025ZM41.6639 6.89762L38.5986 9.46746L38.6654 9.54719L38.7363 9.62333L41.6639 6.89762ZM39.321 4.79945L41.5512 1.47884L41.5498 1.47792L39.321 4.79945ZM36.5481 7.14091C36.8088 7.12607 37.0691 7.14667 37.3186 7.20064L39.0098 -0.618557C38.0527 -0.825565 37.0705 -0.901789 36.0933 -0.846153L36.5481 7.14091ZM37.4398 7.22489C37.445 7.22585 37.4796 7.23259 37.5779 7.25904C37.6274 7.27236 37.6817 7.28752 37.7564 7.30857C37.8247 7.32783 37.9171 7.35399 38.0109 7.37966L40.1235 -0.336366C39.9947 -0.371625 39.4187 -0.545191 38.8886 -0.642815L37.4398 7.22489ZM38.0109 7.37966C37.9612 7.36605 37.952 7.35933 38.0177 7.38572C38.0505 7.39888 38.0916 7.41601 38.1548 7.44294C38.204 7.46391 38.3037 7.50674 38.3838 7.54052L41.49 0.168146C41.371 0.118022 40.7548 -0.163518 40.1235 -0.336366L38.0109 7.37966ZM38.3349 7.5195C38.95 7.78837 39.449 8.16985 39.812 8.60342L45.946 3.46792C44.7548 2.04512 43.2373 0.931478 41.5389 0.189158L38.3349 7.5195ZM39.8073 8.59789C40.0032 8.83269 40.1635 9.07933 40.2891 9.33146L47.4497 5.76427C47.0413 4.94432 46.5371 4.17653 45.9506 3.47345L39.8073 8.59789ZM40.2127 9.16909C40.3842 9.55592 40.436 9.65831 40.506 9.83441L47.9402 6.87937C47.7938 6.51108 47.596 6.0842 47.5261 5.92664L40.2127 9.16909ZM40.506 9.83441C40.4572 9.71168 40.4438 9.63975 40.46 9.70747C40.4688 9.74425 40.4766 9.77905 40.4963 9.86649C40.5129 9.93989 40.5386 10.0533 40.5699 10.1768L48.3257 8.21553C48.2785 8.02878 48.3327 8.23024 48.239 7.83991C48.1876 7.62598 48.0972 7.27429 47.9402 6.87937L40.506 9.83441ZM40.5497 10.0935L40.6455 10.5093L48.4416 8.71469L48.3459 8.29884L40.5497 10.0935ZM40.5848 10.1854C40.5793 10.147 40.5783 10.1292 40.5797 10.1465C40.5804 10.1547 40.5813 10.168 40.5828 10.1902C40.5843 10.214 40.5858 10.2385 40.588 10.2768L48.5739 9.80163C48.5675 9.69446 48.5515 9.3788 48.5022 9.03865L40.5848 10.1854ZM40.581 10.0392C40.581 10.3243 40.5976 10.5805 40.6074 10.7286C40.6198 10.9151 40.623 10.9582 40.6244 11.005L48.6208 10.7671C48.6139 10.5341 48.5963 10.2956 48.5899 10.1994C48.581 10.065 48.581 10.0376 48.581 10.0392H40.581ZM40.6283 10.6722C40.6114 10.9876 40.5658 11.3027 40.4911 11.6145L48.2713 13.4768C48.4582 12.6963 48.574 11.9011 48.6169 11.0998L40.6283 10.6722ZM48.0811 11.0256C48.0491 10.9476 48.0119 10.8394 47.9393 10.5985C47.8817 10.407 47.7661 10.0056 47.627 9.62088L40.1034 12.3402C40.1474 12.4621 40.1796 12.5748 40.279 12.905C40.3636 13.1858 40.4928 13.6069 40.6813 14.0657L48.0811 11.0256ZM47.5788 9.49412C47.4921 9.27763 47.425 9.10054 47.3694 8.93706L39.7951 11.5118C39.9143 11.8625 40.0386 12.1844 40.1517 12.467L47.5788 9.49412ZM47.2796 8.69825C47.3019 8.75208 47.3154 8.79003 47.3184 8.79865C47.3198 8.80241 47.3201 8.8037 47.3059 8.76145C47.2955 8.73057 47.2731 8.66387 47.2463 8.58951C47.2185 8.51194 47.1803 8.4103 47.1317 8.29474L39.7581 11.3981C39.7366 11.3468 39.7229 11.3094 39.718 11.2959C39.7143 11.2855 39.7135 11.2826 39.7244 11.3151C39.7315 11.3361 39.753 11.4003 39.7763 11.4662C39.8013 11.5369 39.8377 11.6363 39.8849 11.7507L47.2796 8.69825ZM47.0436 8.10016L46.873 7.74858L39.6756 11.2411L39.8462 11.5926L47.0436 8.10016ZM46.8978 7.80067L46.5691 7.0975L39.322 10.4858L39.6508 11.189L46.8978 7.80067ZM46.2892 6.59624C46.2196 6.4902 46.1846 6.42305 45.9978 6.10552L39.1026 10.1622C39.1738 10.2832 39.3885 10.6621 39.6019 10.9871L46.2892 6.59624ZM46.0526 6.20163C45.8294 5.79715 45.5752 5.412 45.2932 5.04889L38.975 9.95611C39.0048 9.99441 39.0287 10.0313 39.0479 10.066L46.0526 6.20163ZM45.5007 5.34245C45.2324 4.92421 44.9275 4.53291 44.5914 4.17191L38.7363 9.62333C38.7518 9.63998 38.7616 9.65347 38.7675 9.66255L45.5007 5.34245ZM44.7291 4.32779C43.8132 3.23524 42.7412 2.27809 41.5512 1.47884L37.0909 8.12006C37.6733 8.51123 38.179 8.96694 38.5986 9.46746L44.7291 4.32779ZM41.5498 1.47792C40.4115 0.714078 39.2031 0.0492487 37.9406 -0.509946L34.7008 6.8047C35.5451 7.17862 36.3453 7.61977 37.0923 8.12099L41.5498 1.47792Z" fill="url(#paint9_linear_7_110)" mask="url(#path-9-inside-4_7_110)"/>
<path d="M69.33 42V10.05H80.94C84.42 10.05 87.33 10.77 89.67 12.21C92.01 13.62 93.765 15.54 94.935 17.97C96.105 20.37 96.69 23.04 96.69 25.98C96.69 29.22 96.045 32.04 94.755 34.44C93.465 36.84 91.635 38.7 89.265 40.02C86.925 41.34 84.15 42 80.94 42H69.33ZM90.435 25.98C90.435 23.91 90.06 22.095 89.31 20.535C88.56 18.945 87.48 17.715 86.07 16.845C84.66 15.945 82.95 15.495 80.94 15.495H75.54V36.555H80.94C82.98 36.555 84.705 36.105 86.115 35.205C87.525 34.275 88.59 33.015 89.31 31.425C90.06 29.805 90.435 27.99 90.435 25.98ZM111.892 42.45C110.002 42.45 108.292 42.135 106.762 41.505C105.232 40.845 103.927 39.96 102.847 38.85C101.767 37.71 100.927 36.42 100.327 34.98C99.7569 33.51 99.4719 31.965 99.4719 30.345C99.4719 28.095 99.9669 26.04 100.957 24.18C101.977 22.32 103.417 20.835 105.277 19.725C107.167 18.585 109.387 18.015 111.937 18.015C114.517 18.015 116.722 18.585 118.552 19.725C120.382 20.835 121.777 22.32 122.737 24.18C123.727 26.01 124.222 27.99 124.222 30.12C124.222 30.48 124.207 30.855 124.177 31.245C124.147 31.605 124.117 31.905 124.087 32.145H105.862C105.982 33.345 106.327 34.395 106.897 35.295C107.497 36.195 108.247 36.885 109.147 37.365C110.077 37.815 111.067 38.04 112.117 38.04C113.317 38.04 114.442 37.755 115.492 37.185C116.572 36.585 117.307 35.805 117.697 34.845L122.872 36.285C122.302 37.485 121.477 38.55 120.397 39.48C119.347 40.41 118.102 41.145 116.662 41.685C115.222 42.195 113.632 42.45 111.892 42.45ZM105.727 28.32H118.057C117.937 27.12 117.592 26.085 117.022 25.215C116.482 24.315 115.762 23.625 114.862 23.145C113.962 22.635 112.957 22.38 111.847 22.38C110.767 22.38 109.777 22.635 108.877 23.145C108.007 23.625 107.287 24.315 106.717 25.215C106.177 26.085 105.847 27.12 105.727 28.32ZM149.81 42H143.78V28.77C143.78 26.88 143.45 25.5 142.79 24.63C142.13 23.76 141.215 23.325 140.045 23.325C139.235 23.325 138.41 23.535 137.57 23.955C136.76 24.375 136.025 24.96 135.365 25.71C134.705 26.43 134.225 27.27 133.925 28.23V42H127.895V18.42H133.34V22.785C133.94 21.765 134.705 20.91 135.635 20.22C136.565 19.5 137.63 18.96 138.83 18.6C140.06 18.21 141.35 18.015 142.7 18.015C144.17 18.015 145.37 18.285 146.3 18.825C147.26 19.335 147.98 20.04 148.46 20.94C148.97 21.81 149.315 22.8 149.495 23.91C149.705 25.02 149.81 26.145 149.81 27.285V42ZM169.052 40.785C168.542 40.995 167.927 41.235 167.207 41.505C166.487 41.775 165.707 41.985 164.867 42.135C164.057 42.315 163.232 42.405 162.392 42.405C161.282 42.405 160.262 42.21 159.332 41.82C158.402 41.43 157.652 40.815 157.082 39.975C156.542 39.105 156.272 37.98 156.272 36.6V23.055H153.167V18.42H156.272V10.77H162.302V18.42H167.252V23.055H162.302V34.575C162.332 35.385 162.557 35.97 162.977 36.33C163.397 36.69 163.922 36.87 164.552 36.87C165.182 36.87 165.797 36.765 166.397 36.555C166.997 36.345 167.477 36.165 167.837 36.015L169.052 40.785ZM170.572 35.025C170.572 33.495 170.992 32.16 171.832 31.02C172.702 29.85 173.902 28.95 175.432 28.32C176.962 27.69 178.717 27.375 180.697 27.375C181.687 27.375 182.692 27.45 183.712 27.6C184.732 27.75 185.617 27.99 186.367 28.32V27.06C186.367 25.56 185.917 24.405 185.017 23.595C184.147 22.785 182.842 22.38 181.102 22.38C179.812 22.38 178.582 22.605 177.412 23.055C176.242 23.505 175.012 24.165 173.722 25.035L171.787 21.075C173.347 20.055 174.937 19.29 176.557 18.78C178.207 18.27 179.932 18.015 181.732 18.015C185.092 18.015 187.702 18.855 189.562 20.535C191.452 22.215 192.397 24.615 192.397 27.735V35.25C192.397 35.88 192.502 36.33 192.712 36.6C192.952 36.87 193.327 37.035 193.837 37.095V42C193.297 42.09 192.802 42.165 192.352 42.225C191.932 42.285 191.572 42.315 191.272 42.315C190.072 42.315 189.157 42.045 188.527 41.505C187.927 40.965 187.552 40.305 187.402 39.525L187.267 38.31C186.247 39.63 184.972 40.65 183.442 41.37C181.912 42.09 180.352 42.45 178.762 42.45C177.202 42.45 175.792 42.135 174.532 41.505C173.302 40.845 172.327 39.96 171.607 38.85C170.917 37.71 170.572 36.435 170.572 35.025ZM185.242 36.24C185.572 35.88 185.842 35.52 186.052 35.16C186.262 34.8 186.367 34.47 186.367 34.17V31.785C185.647 31.485 184.867 31.26 184.027 31.11C183.187 30.93 182.392 30.84 181.642 30.84C180.082 30.84 178.792 31.185 177.772 31.875C176.782 32.535 176.287 33.42 176.287 34.53C176.287 35.13 176.452 35.7 176.782 36.24C177.112 36.78 177.592 37.215 178.222 37.545C178.852 37.875 179.602 38.04 180.472 38.04C181.372 38.04 182.257 37.875 183.127 37.545C183.997 37.185 184.702 36.75 185.242 36.24ZM197.987 9.15H204.017V34.44C204.017 35.52 204.197 36.255 204.557 36.645C204.917 37.005 205.412 37.185 206.042 37.185C206.522 37.185 207.017 37.125 207.527 37.005C208.037 36.885 208.487 36.735 208.877 36.555L209.687 41.145C208.877 41.535 207.932 41.835 206.852 42.045C205.772 42.255 204.797 42.36 203.927 42.36C202.037 42.36 200.567 41.865 199.517 40.875C198.497 39.855 197.987 38.415 197.987 36.555V9.15ZM225.724 42.45C223.924 42.45 222.319 42.045 220.909 41.235C219.499 40.425 218.389 39.315 217.579 37.905V42H212.314V9.15H218.344V22.56C219.184 21.15 220.279 20.04 221.629 19.23C223.009 18.42 224.614 18.015 226.444 18.015C227.974 18.015 229.369 18.345 230.629 19.005C231.889 19.635 232.969 20.52 233.869 21.66C234.799 22.8 235.504 24.105 235.984 25.575C236.494 27.045 236.749 28.62 236.749 30.3C236.749 31.98 236.464 33.555 235.894 35.025C235.354 36.495 234.589 37.8 233.599 38.94C232.609 40.05 231.439 40.92 230.089 41.55C228.769 42.15 227.314 42.45 225.724 42.45ZM224.059 37.32C225.019 37.32 225.889 37.14 226.669 36.78C227.479 36.39 228.169 35.88 228.739 35.25C229.339 34.62 229.789 33.885 230.089 33.045C230.419 32.175 230.584 31.275 230.584 30.345C230.584 29.055 230.314 27.87 229.774 26.79C229.264 25.68 228.544 24.795 227.614 24.135C226.714 23.475 225.649 23.145 224.419 23.145C223.549 23.145 222.709 23.355 221.899 23.775C221.119 24.165 220.414 24.705 219.784 25.395C219.184 26.085 218.704 26.865 218.344 27.735V33.36C218.524 33.96 218.809 34.5 219.199 34.98C219.619 35.46 220.099 35.88 220.639 36.24C221.179 36.57 221.734 36.84 222.304 37.05C222.904 37.23 223.489 37.32 224.059 37.32ZM251.77 42.45C249.88 42.45 248.17 42.135 246.64 41.505C245.11 40.845 243.805 39.96 242.725 38.85C241.645 37.71 240.805 36.42 240.205 34.98C239.635 33.51 239.35 31.965 239.35 30.345C239.35 28.095 239.845 26.04 240.835 24.18C241.855 22.32 243.295 20.835 245.155 19.725C247.045 18.585 249.265 18.015 251.815 18.015C254.395 18.015 256.6 18.585 258.43 19.725C260.26 20.835 261.655 22.32 262.615 24.18C263.605 26.01 264.1 27.99 264.1 30.12C264.1 30.48 264.085 30.855 264.055 31.245C264.025 31.605 263.995 31.905 263.965 32.145H245.74C245.86 33.345 246.205 34.395 246.775 35.295C247.375 36.195 248.125 36.885 249.025 37.365C249.955 37.815 250.945 38.04 251.995 38.04C253.195 38.04 254.32 37.755 255.37 37.185C256.45 36.585 257.185 35.805 257.575 34.845L262.75 36.285C262.18 37.485 261.355 38.55 260.275 39.48C259.225 40.41 257.98 41.145 256.54 41.685C255.1 42.195 253.51 42.45 251.77 42.45ZM245.605 28.32H257.935C257.815 27.12 257.47 26.085 256.9 25.215C256.36 24.315 255.64 23.625 254.74 23.145C253.84 22.635 252.835 22.38 251.725 22.38C250.645 22.38 249.655 22.635 248.755 23.145C247.885 23.625 247.165 24.315 246.595 25.215C246.055 26.085 245.725 27.12 245.605 28.32ZM266.153 35.025C266.153 33.495 266.573 32.16 267.413 31.02C268.283 29.85 269.483 28.95 271.013 28.32C272.543 27.69 274.298 27.375 276.278 27.375C277.268 27.375 278.273 27.45 279.293 27.6C280.313 27.75 281.198 27.99 281.948 28.32V27.06C281.948 25.56 281.498 24.405 280.598 23.595C279.728 22.785 278.423 22.38 276.683 22.38C275.393 22.38 274.163 22.605 272.993 23.055C271.823 23.505 270.593 24.165 269.303 25.035L267.368 21.075C268.928 20.055 270.518 19.29 272.138 18.78C273.788 18.27 275.513 18.015 277.313 18.015C280.673 18.015 283.283 18.855 285.143 20.535C287.033 22.215 287.978 24.615 287.978 27.735V35.25C287.978 35.88 288.083 36.33 288.293 36.6C288.533 36.87 288.908 37.035 289.418 37.095V42C288.878 42.09 288.383 42.165 287.933 42.225C287.513 42.285 287.153 42.315 286.853 42.315C285.653 42.315 284.738 42.045 284.108 41.505C283.508 40.965 283.133 40.305 282.983 39.525L282.848 38.31C281.828 39.63 280.553 40.65 279.023 41.37C277.493 42.09 275.933 42.45 274.343 42.45C272.783 42.45 271.373 42.135 270.113 41.505C268.883 40.845 267.908 39.96 267.188 38.85C266.498 37.71 266.153 36.435 266.153 35.025ZM280.823 36.24C281.153 35.88 281.423 35.52 281.633 35.16C281.843 34.8 281.948 34.47 281.948 34.17V31.785C281.228 31.485 280.448 31.26 279.608 31.11C278.768 30.93 277.973 30.84 277.223 30.84C275.663 30.84 274.373 31.185 273.353 31.875C272.363 32.535 271.868 33.42 271.868 34.53C271.868 35.13 272.033 35.7 272.363 36.24C272.693 36.78 273.173 37.215 273.803 37.545C274.433 37.875 275.183 38.04 276.053 38.04C276.953 38.04 277.838 37.875 278.708 37.545C279.578 37.185 280.283 36.75 280.823 36.24ZM293.388 33.18V18.42H299.418V31.875C299.418 33.675 299.748 35.04 300.408 35.97C301.068 36.87 302.043 37.32 303.333 37.32C304.113 37.32 304.878 37.17 305.628 36.87C306.408 36.54 307.113 36.06 307.743 35.43C308.403 34.8 308.958 34.005 309.408 33.045V18.42H315.438V35.25C315.438 35.88 315.543 36.33 315.753 36.6C315.993 36.87 316.368 37.035 316.878 37.095V42C316.278 42.09 315.768 42.15 315.348 42.18C314.958 42.24 314.598 42.27 314.268 42.27C313.188 42.27 312.303 42.03 311.613 41.55C310.953 41.04 310.563 40.35 310.443 39.48L310.308 37.59C309.258 39.18 307.908 40.395 306.258 41.235C304.608 42.045 302.793 42.45 300.813 42.45C298.383 42.45 296.538 41.67 295.278 40.11C294.018 38.52 293.388 36.21 293.388 33.18ZM335.473 40.785C334.963 40.995 334.348 41.235 333.628 41.505C332.908 41.775 332.128 41.985 331.288 42.135C330.478 42.315 329.653 42.405 328.813 42.405C327.703 42.405 326.683 42.21 325.753 41.82C324.823 41.43 324.073 40.815 323.503 39.975C322.963 39.105 322.693 37.98 322.693 36.6V23.055H319.588V18.42H322.693V10.77H328.723V18.42H333.673V23.055H328.723V34.575C328.753 35.385 328.978 35.97 329.398 36.33C329.818 36.69 330.343 36.87 330.973 36.87C331.603 36.87 332.218 36.765 332.818 36.555C333.418 36.345 333.898 36.165 334.258 36.015L335.473 40.785ZM339.02 46.59C339.56 46.71 340.055 46.815 340.505 46.905C340.985 46.995 341.39 47.04 341.72 47.04C342.29 47.04 342.755 46.89 343.115 46.59C343.505 46.32 343.88 45.81 344.24 45.06C344.6 44.34 344.975 43.32 345.365 42L336.05 18.42H342.305L348.65 35.835L354.23 18.42H359.99L350.09 46.68C349.73 47.73 349.175 48.675 348.425 49.515C347.705 50.385 346.79 51.06 345.68 51.54C344.6 52.05 343.385 52.305 342.035 52.305C341.555 52.305 341.075 52.26 340.595 52.17C340.115 52.11 339.59 51.99 339.02 51.81V46.59Z" fill="white"/>
<defs>
<linearGradient id="paint0_linear_7_110" x1="15.0471" y1="25.0918" x2="15.0471" y2="55.4111" gradientUnits="userSpaceOnUse">
<stop stop-color="white"/>
<stop offset="1" stop-color="#AFAFAF"/>
</linearGradient>
<linearGradient id="paint1_linear_7_110" x1="24.3868" y1="0" x2="24.3868" y2="55.4111" gradientUnits="userSpaceOnUse">
<stop stop-color="white"/>
<stop offset="1" stop-color="#AFAFAF"/>
</linearGradient>
<linearGradient id="paint2_linear_7_110" x1="7.77927" y1="6.28535" x2="7.77927" y2="11.488" gradientUnits="userSpaceOnUse">
<stop offset="0.28" stop-color="white"/>
<stop offset="0.93" stop-color="#E4F4FE"/>
</linearGradient>
<linearGradient id="paint3_linear_7_110" x1="7.78298" y1="6.27295" x2="7.78298" y2="11.5004" gradientUnits="userSpaceOnUse">
<stop stop-color="white"/>
<stop offset="1" stop-color="#AFAFAF"/>
</linearGradient>
<linearGradient id="paint4_linear_7_110" x1="12.9394" y1="11.4805" x2="12.9394" y2="14.6599" gradientUnits="userSpaceOnUse">
<stop offset="0.28" stop-color="white"/>
<stop offset="0.93" stop-color="#E4F4FE"/>
</linearGradient>
<linearGradient id="paint5_linear_7_110" x1="12.9717" y1="11.5" x2="12.9717" y2="14.6365" gradientUnits="userSpaceOnUse">
<stop stop-color="white"/>
<stop offset="1" stop-color="#AFAFAF"/>
</linearGradient>
<linearGradient id="paint6_linear_7_110" x1="7.27702" y1="18.8226" x2="7.27702" y2="19.8588" gradientUnits="userSpaceOnUse">
<stop offset="0.28" stop-color="white"/>
<stop offset="0.93" stop-color="#E4F4FE"/>
</linearGradient>
<linearGradient id="paint7_linear_7_110" x1="7.26412" y1="18.8188" x2="7.26412" y2="19.8643" gradientUnits="userSpaceOnUse">
<stop stop-color="white"/>
<stop offset="1" stop-color="#AFAFAF"/>
</linearGradient>
<linearGradient id="paint8_linear_7_110" x1="40.4737" y1="2.44799" x2="40.4737" y2="12.5343" gradientUnits="userSpaceOnUse">
<stop offset="0.28" stop-color="white"/>
<stop offset="0.93" stop-color="#E4F4FE"/>
</linearGradient>
<linearGradient id="paint9_linear_7_110" x1="40.4717" y1="3.13623" x2="40.4717" y2="12.5457" gradientUnits="userSpaceOnUse">
<stop stop-color="white"/>
<stop offset="1" stop-color="#AFAFAF"/>
</linearGradient>
</defs>
</svg>
